<?xml version="1.0" encoding="utf-8" standalone="no"?>
<!DOCTYPE svg PUBLIC "-//W3C//DTD SVG 1.1//EN"
  "http://www.w3.org/Graphics/SVG/1.1/DTD/svg11.dtd">
<svg xmlns:xlink="http://www.w3.org/1999/xlink" width="527.76pt" height="169.632pt" viewBox="0 0 527.76 169.632" xmlns="http://www.w3.org/2000/svg" version="1.1">
 <metadata>
  <rdf:RDF xmlns:dc="http://purl.org/dc/elements/1.1/" xmlns:cc="http://creativecommons.org/ns#" xmlns:rdf="http://www.w3.org/1999/02/22-rdf-syntax-ns#">
   <cc:Work>
    <dc:type rdf:resource="http://purl.org/dc/dcmitype/StillImage"/>
    <dc:date>2026-06-18T16:39:02.932247</dc:date>
    <dc:format>image/svg+xml</dc:format>
    <dc:creator>
     <cc:Agent>
      <dc:title>Matplotlib v3.11.0, https://matplotlib.org/</dc:title>
     </cc:Agent>
    </dc:creator>
   </cc:Work>
  </rdf:RDF>
 </metadata>
 <defs>
  <style type="text/css">*{stroke-linejoin: round; stroke-linecap: butt}</style>
 </defs>
 <g id="figure_1">
  <g id="patch_1">
   <path d="M 0 169.632 
L 527.76 169.632 
L 527.76 0 
L 0 0 
z
" style="fill: #fcfcfd"/>
  </g>
  <g id="axes_1">
   <g id="PathCollection_1">
    <defs>
     <path id="m3ed6f14f74" d="M 0 21.213203 
C 5.625807 21.213203 11.021954 18.978047 15 15 
C 18.978047 11.021954 21.213203 5.625807 21.213203 0 
C 21.213203 -5.625807 18.978047 -11.021954 15 -15 
C 11.021954 -18.978047 5.625807 -21.213203 0 -21.213203 
C -5.625807 -21.213203 -11.021954 -18.978047 -15 -15 
C -18.978047 -11.021954 -21.213203 -5.625807 -21.213203 0 
C -21.213203 5.625807 -18.978047 11.021954 -15 15 
C -11.021954 18.978047 -5.625807 21.213203 0 21.213203 
z
" style="stroke: #ffffff; stroke-width: 2"/>
    </defs>
    <g clip-path="url(#p226b1dcbcf)">
     <use xlink:href="#m3ed6f14f74" x="130.4064" y="72.39744" style="fill: #f0986e; stroke: #ffffff; stroke-width: 2"/>
    </g>
   </g>
   <g id="PathCollection_2">
    <defs>
     <path id="m1b831bf93c" d="M 0 21.213203 
C 5.625807 21.213203 11.021954 18.978047 15 15 
C 18.978047 11.021954 21.213203 5.625807 21.213203 0 
C 21.213203 -5.625807 18.978047 -11.021954 15 -15 
C 11.021954 -18.978047 5.625807 -21.213203 0 -21.213203 
C -5.625807 -21.213203 -11.021954 -18.978047 -15 -15 
C -18.978047 -11.021954 -21.213203 -5.625807 -21.213203 0 
C -21.213203 5.625807 -18.978047 11.021954 -15 15 
C -11.021954 18.978047 -5.625807 21.213203 0 21.213203 
z
" style="stroke: #ffffff; stroke-width: 2"/>
    </defs>
    <g clip-path="url(#p226b1dcbcf)">
     <use xlink:href="#m1b831bf93c" x="356.2848" y="72.39744" style="fill: #a3befa; stroke: #ffffff; stroke-width: 2"/>
    </g>
   </g>
   <g id="patch_2">
    <path d="M 173.471113 72.39744 
Q 243.342154 72.39744 310.977128 72.39744 
" style="fill: none; stroke: #464c55; stroke-width: 2; stroke-linecap: round"/>
    <path d="M 303.777128 68.79744 
L 310.977128 72.39744 
L 303.777128 75.99744 
z
" style="fill: #464c55; stroke: #464c55; stroke-width: 2; stroke-linecap: round"/>
   </g>
   <g id="text_1">
    <!-- Target -->
    <g style="fill: #1f2430" transform="translate(112.439994 68.993729) scale(0.1 -0.1)">
     <defs>
      <path id="DejaVuSans-Bold-37" d="M 31 4666 
L 4331 4666 
L 4331 3756 
L 2784 3756 
L 2784 0 
L 1581 0 
L 1581 3756 
L 31 3756 
L 31 4666 
z
" transform="scale(0.015625)"/>
      <path id="DejaVuSans-Bold-44" d="M 2106 1575 
Q 1756 1575 1579 1456 
Q 1403 1338 1403 1106 
Q 1403 894 1545 773 
Q 1688 653 1941 653 
Q 2256 653 2472 879 
Q 2688 1106 2688 1447 
L 2688 1575 
L 2106 1575 
z
M 3816 1997 
L 3816 0 
L 2688 0 
L 2688 519 
Q 2463 200 2181 54 
Q 1900 -91 1497 -91 
Q 953 -91 614 226 
Q 275 544 275 1050 
Q 275 1666 698 1953 
Q 1122 2241 2028 2241 
L 2688 2241 
L 2688 2328 
Q 2688 2594 2478 2717 
Q 2269 2841 1825 2841 
Q 1466 2841 1156 2769 
Q 847 2697 581 2553 
L 581 3406 
Q 941 3494 1303 3539 
Q 1666 3584 2028 3584 
Q 2975 3584 3395 3211 
Q 3816 2838 3816 1997 
z
" transform="scale(0.015625)"/>
      <path id="DejaVuSans-Bold-55" d="M 3138 2547 
Q 2991 2616 2845 2648 
Q 2700 2681 2553 2681 
Q 2122 2681 1889 2404 
Q 1656 2128 1656 1613 
L 1656 0 
L 538 0 
L 538 3500 
L 1656 3500 
L 1656 2925 
Q 1872 3269 2151 3426 
Q 2431 3584 2822 3584 
Q 2878 3584 2943 3579 
Q 3009 3575 3134 3559 
L 3138 2547 
z
" transform="scale(0.015625)"/>
      <path id="DejaVuSans-Bold-4a" d="M 2919 594 
Q 2688 288 2409 144 
Q 2131 0 1766 0 
Q 1125 0 706 504 
Q 288 1009 288 1791 
Q 288 2575 706 3076 
Q 1125 3578 1766 3578 
Q 2131 3578 2409 3434 
Q 2688 3291 2919 2981 
L 2919 3500 
L 4044 3500 
L 4044 353 
Q 4044 -491 3511 -936 
Q 2978 -1381 1966 -1381 
Q 1638 -1381 1331 -1331 
Q 1025 -1281 716 -1178 
L 716 -306 
Q 1009 -475 1290 -558 
Q 1572 -641 1856 -641 
Q 2406 -641 2662 -400 
Q 2919 -159 2919 353 
L 2919 594 
z
M 2181 2772 
Q 1834 2772 1640 2515 
Q 1447 2259 1447 1791 
Q 1447 1309 1634 1061 
Q 1822 813 2181 813 
Q 2531 813 2725 1069 
Q 2919 1325 2919 1791 
Q 2919 2259 2725 2515 
Q 2531 2772 2181 2772 
z
" transform="scale(0.015625)"/>
      <path id="DejaVuSans-Bold-48" d="M 4031 1759 
L 4031 1441 
L 1416 1441 
Q 1456 1047 1700 850 
Q 1944 653 2381 653 
Q 2734 653 3104 758 
Q 3475 863 3866 1075 
L 3866 213 
Q 3469 63 3072 -14 
Q 2675 -91 2278 -91 
Q 1328 -91 801 392 
Q 275 875 275 1747 
Q 275 2603 792 3093 
Q 1309 3584 2216 3584 
Q 3041 3584 3536 3087 
Q 4031 2591 4031 1759 
z
M 2881 2131 
Q 2881 2450 2695 2645 
Q 2509 2841 2209 2841 
Q 1884 2841 1681 2658 
Q 1478 2475 1428 2131 
L 2881 2131 
z
" transform="scale(0.015625)"/>
      <path id="DejaVuSans-Bold-57" d="M 1759 4494 
L 1759 3500 
L 2913 3500 
L 2913 2700 
L 1759 2700 
L 1759 1216 
Q 1759 972 1856 886 
Q 1953 800 2241 800 
L 2816 800 
L 2816 0 
L 1856 0 
Q 1194 0 917 276 
Q 641 553 641 1216 
L 641 2700 
L 84 2700 
L 84 3500 
L 641 3500 
L 641 4494 
L 1759 4494 
z
" transform="scale(0.015625)"/>
     </defs>
     <use xlink:href="#DejaVuSans-Bold-37"/>
     <use xlink:href="#DejaVuSans-Bold-44" transform="translate(55.328125 0)"/>
     <use xlink:href="#DejaVuSans-Bold-55" transform="translate(122.8125 0)"/>
     <use xlink:href="#DejaVuSans-Bold-4a" transform="translate(172.125 0)"/>
     <use xlink:href="#DejaVuSans-Bold-48" transform="translate(243.703125 0)"/>
     <use xlink:href="#DejaVuSans-Bold-57" transform="translate(311.53125 0)"/>
    </g>
    <!-- visible -->
    <g style="fill: #1f2430" transform="translate(112.058744 80.996463) scale(0.1 -0.1)">
     <defs>
      <path id="DejaVuSans-Bold-59" d="M 97 3500 
L 1216 3500 
L 2088 1081 
L 2956 3500 
L 4078 3500 
L 2700 0 
L 1472 0 
L 97 3500 
z
" transform="scale(0.015625)"/>
      <path id="DejaVuSans-Bold-4c" d="M 538 3500 
L 1656 3500 
L 1656 0 
L 538 0 
L 538 3500 
z
M 538 4863 
L 1656 4863 
L 1656 3950 
L 538 3950 
L 538 4863 
z
" transform="scale(0.015625)"/>
      <path id="DejaVuSans-Bold-56" d="M 3272 3391 
L 3272 2541 
Q 2913 2691 2578 2766 
Q 2244 2841 1947 2841 
Q 1628 2841 1473 2761 
Q 1319 2681 1319 2516 
Q 1319 2381 1436 2309 
Q 1553 2238 1856 2203 
L 2053 2175 
Q 2913 2066 3209 1816 
Q 3506 1566 3506 1031 
Q 3506 472 3093 190 
Q 2681 -91 1863 -91 
Q 1516 -91 1145 -36 
Q 775 19 384 128 
L 384 978 
Q 719 816 1070 734 
Q 1422 653 1784 653 
Q 2113 653 2278 743 
Q 2444 834 2444 1013 
Q 2444 1163 2330 1236 
Q 2216 1309 1875 1350 
L 1678 1375 
Q 931 1469 631 1722 
Q 331 1975 331 2491 
Q 331 3047 712 3315 
Q 1094 3584 1881 3584 
Q 2191 3584 2531 3537 
Q 2872 3491 3272 3391 
z
" transform="scale(0.015625)"/>
      <path id="DejaVuSans-Bold-45" d="M 2400 722 
Q 2759 722 2948 984 
Q 3138 1247 3138 1747 
Q 3138 2247 2948 2509 
Q 2759 2772 2400 2772 
Q 2041 2772 1848 2508 
Q 1656 2244 1656 1747 
Q 1656 1250 1848 986 
Q 2041 722 2400 722 
z
M 1656 2988 
Q 1888 3294 2169 3439 
Q 2450 3584 2816 3584 
Q 3463 3584 3878 3070 
Q 4294 2556 4294 1747 
Q 4294 938 3878 423 
Q 3463 -91 2816 -91 
Q 2450 -91 2169 54 
Q 1888 200 1656 506 
L 1656 0 
L 538 0 
L 538 4863 
L 1656 4863 
L 1656 2988 
z
" transform="scale(0.015625)"/>
      <path id="DejaVuSans-Bold-4f" d="M 538 4863 
L 1656 4863 
L 1656 0 
L 538 0 
L 538 4863 
z
" transform="scale(0.015625)"/>
     </defs>
     <use xlink:href="#DejaVuSans-Bold-59"/>
     <use xlink:href="#DejaVuSans-Bold-4c" transform="translate(65.1875 0)"/>
     <use xlink:href="#DejaVuSans-Bold-56" transform="translate(99.46875 0)"/>
     <use xlink:href="#DejaVuSans-Bold-4c" transform="translate(158.984375 0)"/>
     <use xlink:href="#DejaVuSans-Bold-45" transform="translate(193.265625 0)"/>
     <use xlink:href="#DejaVuSans-Bold-4f" transform="translate(264.84375 0)"/>
     <use xlink:href="#DejaVuSans-Bold-48" transform="translate(299.125 0)"/>
    </g>
   </g>
   <g id="text_2">
    <!-- Source -->
    <g style="fill: #1f2430" transform="translate(336.868394 68.993729) scale(0.1 -0.1)">
     <defs>
      <path id="DejaVuSans-Bold-36" d="M 3834 4519 
L 3834 3531 
Q 3450 3703 3084 3790 
Q 2719 3878 2394 3878 
Q 1963 3878 1756 3759 
Q 1550 3641 1550 3391 
Q 1550 3203 1689 3098 
Q 1828 2994 2194 2919 
L 2706 2816 
Q 3484 2659 3812 2340 
Q 4141 2022 4141 1434 
Q 4141 663 3683 286 
Q 3225 -91 2284 -91 
Q 1841 -91 1394 -6 
Q 947 78 500 244 
L 500 1259 
Q 947 1022 1364 901 
Q 1781 781 2169 781 
Q 2563 781 2772 912 
Q 2981 1044 2981 1288 
Q 2981 1506 2839 1625 
Q 2697 1744 2272 1838 
L 1806 1941 
Q 1106 2091 782 2419 
Q 459 2747 459 3303 
Q 459 4000 909 4375 
Q 1359 4750 2203 4750 
Q 2588 4750 2994 4692 
Q 3400 4634 3834 4519 
z
" transform="scale(0.015625)"/>
      <path id="DejaVuSans-Bold-52" d="M 2203 2784 
Q 1831 2784 1636 2517 
Q 1441 2250 1441 1747 
Q 1441 1244 1636 976 
Q 1831 709 2203 709 
Q 2569 709 2762 976 
Q 2956 1244 2956 1747 
Q 2956 2250 2762 2517 
Q 2569 2784 2203 2784 
z
M 2203 3584 
Q 3106 3584 3614 3096 
Q 4122 2609 4122 1747 
Q 4122 884 3614 396 
Q 3106 -91 2203 -91 
Q 1297 -91 786 396 
Q 275 884 275 1747 
Q 275 2609 786 3096 
Q 1297 3584 2203 3584 
z
" transform="scale(0.015625)"/>
      <path id="DejaVuSans-Bold-58" d="M 500 1363 
L 500 3500 
L 1625 3500 
L 1625 3150 
Q 1625 2866 1622 2436 
Q 1619 2006 1619 1863 
Q 1619 1441 1641 1255 
Q 1663 1069 1716 984 
Q 1784 875 1895 815 
Q 2006 756 2150 756 
Q 2500 756 2700 1025 
Q 2900 1294 2900 1772 
L 2900 3500 
L 4019 3500 
L 4019 0 
L 2900 0 
L 2900 506 
Q 2647 200 2364 54 
Q 2081 -91 1741 -91 
Q 1134 -91 817 281 
Q 500 653 500 1363 
z
" transform="scale(0.015625)"/>
      <path id="DejaVuSans-Bold-46" d="M 3366 3391 
L 3366 2478 
Q 3138 2634 2908 2709 
Q 2678 2784 2431 2784 
Q 1963 2784 1702 2511 
Q 1441 2238 1441 1747 
Q 1441 1256 1702 982 
Q 1963 709 2431 709 
Q 2694 709 2930 787 
Q 3166 866 3366 1019 
L 3366 103 
Q 3103 6 2833 -42 
Q 2563 -91 2291 -91 
Q 1344 -91 809 395 
Q 275 881 275 1747 
Q 275 2613 809 3098 
Q 1344 3584 2291 3584 
Q 2566 3584 2833 3536 
Q 3100 3488 3366 3391 
z
" transform="scale(0.015625)"/>
     </defs>
     <use xlink:href="#DejaVuSans-Bold-36"/>
     <use xlink:href="#DejaVuSans-Bold-52" transform="translate(72.015625 0)"/>
     <use xlink:href="#DejaVuSans-Bold-58" transform="translate(140.71875 0)"/>
     <use xlink:href="#DejaVuSans-Bold-55" transform="translate(211.90625 0)"/>
     <use xlink:href="#DejaVuSans-Bold-46" transform="translate(261.21875 0)"/>
     <use xlink:href="#DejaVuSans-Bold-48" transform="translate(320.5 0)"/>
    </g>
    <!-- exposed -->
    <g style="fill: #1f2430" transform="translate(332.708237 80.996463) scale(0.1 -0.1)">
     <defs>
      <path id="DejaVuSans-Bold-5b" d="M 1422 1791 
L 159 3500 
L 1344 3500 
L 2059 2463 
L 2784 3500 
L 3969 3500 
L 2706 1797 
L 4031 0 
L 2847 0 
L 2059 1106 
L 1281 0 
L 97 0 
L 1422 1791 
z
" transform="scale(0.015625)"/>
      <path id="DejaVuSans-Bold-53" d="M 1656 506 
L 1656 -1331 
L 538 -1331 
L 538 3500 
L 1656 3500 
L 1656 2988 
Q 1888 3294 2169 3439 
Q 2450 3584 2816 3584 
Q 3463 3584 3878 3070 
Q 4294 2556 4294 1747 
Q 4294 938 3878 423 
Q 3463 -91 2816 -91 
Q 2450 -91 2169 54 
Q 1888 200 1656 506 
z
M 2400 2772 
Q 2041 2772 1848 2508 
Q 1656 2244 1656 1747 
Q 1656 1250 1848 986 
Q 2041 722 2400 722 
Q 2759 722 2948 984 
Q 3138 1247 3138 1747 
Q 3138 2247 2948 2509 
Q 2759 2772 2400 2772 
z
" transform="scale(0.015625)"/>
      <path id="DejaVuSans-Bold-47" d="M 2919 2988 
L 2919 4863 
L 4044 4863 
L 4044 0 
L 2919 0 
L 2919 506 
Q 2688 197 2409 53 
Q 2131 -91 1766 -91 
Q 1119 -91 703 423 
Q 288 938 288 1747 
Q 288 2556 703 3070 
Q 1119 3584 1766 3584 
Q 2128 3584 2408 3439 
Q 2688 3294 2919 2988 
z
M 2181 722 
Q 2541 722 2730 984 
Q 2919 1247 2919 1747 
Q 2919 2247 2730 2509 
Q 2541 2772 2181 2772 
Q 1825 2772 1636 2509 
Q 1447 2247 1447 1747 
Q 1447 1247 1636 984 
Q 1825 722 2181 722 
z
" transform="scale(0.015625)"/>
     </defs>
     <use xlink:href="#DejaVuSans-Bold-48"/>
     <use xlink:href="#DejaVuSans-Bold-5b" transform="translate(67.828125 0)"/>
     <use xlink:href="#DejaVuSans-Bold-53" transform="translate(132.328125 0)"/>
     <use xlink:href="#DejaVuSans-Bold-52" transform="translate(203.90625 0)"/>
     <use xlink:href="#DejaVuSans-Bold-56" transform="translate(272.609375 0)"/>
     <use xlink:href="#DejaVuSans-Bold-48" transform="translate(332.125 0)"/>
     <use xlink:href="#DejaVuSans-Bold-47" transform="translate(399.953125 0)"/>
    </g>
   </g>
   <g id="text_3">
    <!-- TargetUserId -&gt; SourceUserId -->
    <g style="fill: #1f2430" transform="translate(151.173334 79.912252) scale(0.11 -0.11)">
     <defs>
      <path id="DejaVuSans-Bold-38" d="M 588 4666 
L 1791 4666 
L 1791 1869 
Q 1791 1291 1980 1042 
Q 2169 794 2597 794 
Q 3028 794 3217 1042 
Q 3406 1291 3406 1869 
L 3406 4666 
L 4609 4666 
L 4609 1869 
Q 4609 878 4112 393 
Q 3616 -91 2597 -91 
Q 1581 -91 1084 393 
Q 588 878 588 1869 
L 588 4666 
z
" transform="scale(0.015625)"/>
      <path id="DejaVuSans-Bold-2c" d="M 588 4666 
L 1791 4666 
L 1791 0 
L 588 0 
L 588 4666 
z
" transform="scale(0.015625)"/>
      <path id="DejaVuSans-Bold-3" transform="scale(0.015625)"/>
      <path id="DejaVuSans-Bold-10" d="M 347 2297 
L 2309 2297 
L 2309 1388 
L 347 1388 
L 347 2297 
z
" transform="scale(0.015625)"/>
      <path id="DejaVuSans-Bold-21" d="M 678 3041 
L 678 3822 
L 4684 2375 
L 4684 1638 
L 678 191 
L 678 972 
L 3694 2003 
L 678 3041 
z
" transform="scale(0.015625)"/>
     </defs>
     <use xlink:href="#DejaVuSans-Bold-37"/>
     <use xlink:href="#DejaVuSans-Bold-44" transform="translate(55.328125 0)"/>
     <use xlink:href="#DejaVuSans-Bold-55" transform="translate(122.8125 0)"/>
     <use xlink:href="#DejaVuSans-Bold-4a" transform="translate(172.125 0)"/>
     <use xlink:href="#DejaVuSans-Bold-48" transform="translate(243.703125 0)"/>
     <use xlink:href="#DejaVuSans-Bold-57" transform="translate(311.53125 0)"/>
     <use xlink:href="#DejaVuSans-Bold-38" transform="translate(359.328125 0)"/>
     <use xlink:href="#DejaVuSans-Bold-56" transform="translate(440.53125 0)"/>
     <use xlink:href="#DejaVuSans-Bold-48" transform="translate(500.046875 0)"/>
     <use xlink:href="#DejaVuSans-Bold-55" transform="translate(567.875 0)"/>
     <use xlink:href="#DejaVuSans-Bold-2c" transform="translate(617.1875 0)"/>
     <use xlink:href="#DejaVuSans-Bold-47" transform="translate(654.390625 0)"/>
     <use xlink:href="#DejaVuSans-Bold-3" transform="translate(725.96875 0)"/>
     <use xlink:href="#DejaVuSans-Bold-10" transform="translate(760.78125 0)"/>
     <use xlink:href="#DejaVuSans-Bold-21" transform="translate(802.28125 0)"/>
     <use xlink:href="#DejaVuSans-Bold-3" transform="translate(886.078125 0)"/>
     <use xlink:href="#DejaVuSans-Bold-36" transform="translate(920.890625 0)"/>
     <use xlink:href="#DejaVuSans-Bold-52" transform="translate(992.90625 0)"/>
     <use xlink:href="#DejaVuSans-Bold-58" transform="translate(1061.609375 0)"/>
     <use xlink:href="#DejaVuSans-Bold-55" transform="translate(1132.796875 0)"/>
     <use xlink:href="#DejaVuSans-Bold-46" transform="translate(1182.109375 0)"/>
     <use xlink:href="#DejaVuSans-Bold-48" transform="translate(1241.390625 0)"/>
     <use xlink:href="#DejaVuSans-Bold-38" transform="translate(1309.21875 0)"/>
     <use xlink:href="#DejaVuSans-Bold-56" transform="translate(1390.421875 0)"/>
     <use xlink:href="#DejaVuSans-Bold-48" transform="translate(1449.9375 0)"/>
     <use xlink:href="#DejaVuSans-Bold-55" transform="translate(1517.765625 0)"/>
     <use xlink:href="#DejaVuSans-Bold-2c" transform="translate(1567.078125 0)"/>
     <use xlink:href="#DejaVuSans-Bold-47" transform="translate(1604.28125 0)"/>
    </g>
   </g>
   <g id="text_4">
    <g id="patch_3">
     <path d="M 38.118281 160.833457 
L 489.641719 160.833457 
Q 494.641719 160.833457 494.641719 155.833457 
L 494.641719 131.774863 
Q 494.641719 126.774863 489.641719 126.774863 
L 38.118281 126.774863 
Q 33.118281 126.774863 33.118281 131.774863 
L 33.118281 155.833457 
Q 33.118281 160.833457 38.118281 160.833457 
z
" style="fill: #f4f5f7; stroke: #d7dbe7; stroke-linejoin: miter"/>
    </g>
    <!-- exposure_raw_weight = 0.35 * Like + 0.80 * Repost + 0.90 * Quote -->
    <g style="fill: #1f2430" transform="translate(71.23 140.374277) scale(0.1 -0.1)">
     <defs>
      <path id="DejaVuSansMono-48" d="M 3475 1894 
L 3475 1613 
L 984 1613 
L 984 1594 
Q 984 1022 1282 709 
Q 1581 397 2125 397 
Q 2400 397 2700 484 
Q 3000 572 3341 750 
L 3341 178 
Q 3013 44 2708 -23 
Q 2403 -91 2119 -91 
Q 1303 -91 843 398 
Q 384 888 384 1747 
Q 384 2584 834 3084 
Q 1284 3584 2034 3584 
Q 2703 3584 3089 3131 
Q 3475 2678 3475 1894 
z
M 2900 2063 
Q 2888 2569 2661 2833 
Q 2434 3097 2009 3097 
Q 1594 3097 1325 2822 
Q 1056 2547 1006 2059 
L 2900 2063 
z
" transform="scale(0.015625)"/>
      <path id="DejaVuSansMono-5b" d="M 3494 3500 
L 2241 1825 
L 3616 0 
L 2950 0 
L 1925 1403 
L 903 0 
L 238 0 
L 1613 1825 
L 359 3500 
L 997 3500 
L 1925 2234 
L 2847 3500 
L 3494 3500 
z
" transform="scale(0.015625)"/>
      <path id="DejaVuSansMono-53" d="M 1172 441 
L 1172 -1331 
L 594 -1331 
L 594 3500 
L 1172 3500 
L 1172 3053 
Q 1316 3313 1555 3448 
Q 1794 3584 2106 3584 
Q 2741 3584 3102 3093 
Q 3463 2603 3463 1734 
Q 3463 881 3100 395 
Q 2738 -91 2106 -91 
Q 1788 -91 1548 45 
Q 1309 181 1172 441 
z
M 2859 1747 
Q 2859 2416 2648 2756 
Q 2438 3097 2022 3097 
Q 1603 3097 1387 2755 
Q 1172 2413 1172 1747 
Q 1172 1084 1387 740 
Q 1603 397 2022 397 
Q 2438 397 2648 737 
Q 2859 1078 2859 1747 
z
" transform="scale(0.015625)"/>
      <path id="DejaVuSansMono-52" d="M 1925 3097 
Q 1488 3097 1263 2756 
Q 1038 2416 1038 1747 
Q 1038 1081 1263 739 
Q 1488 397 1925 397 
Q 2366 397 2591 739 
Q 2816 1081 2816 1747 
Q 2816 2416 2591 2756 
Q 2366 3097 1925 3097 
z
M 1925 3584 
Q 2653 3584 3039 3112 
Q 3425 2641 3425 1747 
Q 3425 850 3040 379 
Q 2656 -91 1925 -91 
Q 1197 -91 812 379 
Q 428 850 428 1747 
Q 428 2641 812 3112 
Q 1197 3584 1925 3584 
z
" transform="scale(0.015625)"/>
      <path id="DejaVuSansMono-56" d="M 3041 3378 
L 3041 2816 
Q 2794 2959 2544 3031 
Q 2294 3103 2034 3103 
Q 1644 3103 1451 2976 
Q 1259 2850 1259 2591 
Q 1259 2356 1403 2240 
Q 1547 2125 2119 2016 
L 2350 1972 
Q 2778 1891 2998 1647 
Q 3219 1403 3219 1013 
Q 3219 494 2850 201 
Q 2481 -91 1825 -91 
Q 1566 -91 1281 -36 
Q 997 19 666 128 
L 666 722 
Q 988 556 1281 473 
Q 1575 391 1838 391 
Q 2219 391 2428 545 
Q 2638 700 2638 978 
Q 2638 1378 1872 1531 
L 1847 1538 
L 1631 1581 
Q 1134 1678 906 1908 
Q 678 2138 678 2534 
Q 678 3038 1018 3311 
Q 1359 3584 1991 3584 
Q 2272 3584 2531 3532 
Q 2791 3481 3041 3378 
z
" transform="scale(0.015625)"/>
      <path id="DejaVuSansMono-58" d="M 609 1325 
L 609 3494 
L 1184 3494 
L 1184 1325 
Q 1184 853 1351 631 
Q 1519 409 1869 409 
Q 2275 409 2490 695 
Q 2706 981 2706 1516 
L 2706 3494 
L 3284 3494 
L 3284 0 
L 2706 0 
L 2706 525 
Q 2553 222 2289 65 
Q 2025 -91 1672 -91 
Q 1134 -91 871 261 
Q 609 613 609 1325 
z
" transform="scale(0.015625)"/>
      <path id="DejaVuSansMono-55" d="M 3609 2778 
Q 3425 2922 3234 2987 
Q 3044 3053 2816 3053 
Q 2278 3053 1993 2715 
Q 1709 2378 1709 1741 
L 1709 0 
L 1131 0 
L 1131 3500 
L 1709 3500 
L 1709 2816 
Q 1853 3188 2151 3386 
Q 2450 3584 2859 3584 
Q 3072 3584 3256 3531 
Q 3441 3478 3609 3366 
L 3609 2778 
z
" transform="scale(0.015625)"/>
      <path id="DejaVuSansMono-42" d="M 3853 -1259 
L 3853 -1509 
L 0 -1509 
L 0 -1259 
L 3853 -1259 
z
" transform="scale(0.015625)"/>
      <path id="DejaVuSansMono-44" d="M 2194 1759 
L 2003 1759 
Q 1500 1759 1245 1582 
Q 991 1406 991 1056 
Q 991 741 1181 566 
Q 1372 391 1709 391 
Q 2184 391 2456 720 
Q 2728 1050 2731 1631 
L 2731 1759 
L 2194 1759 
z
M 3309 1997 
L 3309 0 
L 2731 0 
L 2731 519 
Q 2547 206 2267 57 
Q 1988 -91 1588 -91 
Q 1053 -91 734 211 
Q 416 513 416 1019 
Q 416 1603 808 1906 
Q 1200 2209 1959 2209 
L 2731 2209 
L 2731 2300 
Q 2728 2719 2518 2908 
Q 2309 3097 1850 3097 
Q 1556 3097 1256 3012 
Q 956 2928 672 2766 
L 672 3341 
Q 991 3463 1283 3523 
Q 1575 3584 1850 3584 
Q 2284 3584 2592 3456 
Q 2900 3328 3091 3072 
Q 3209 2916 3259 2686 
Q 3309 2456 3309 1997 
z
" transform="scale(0.015625)"/>
      <path id="DejaVuSansMono-5a" d="M 0 3500 
L 569 3500 
L 1178 672 
L 1678 2478 
L 2169 2478 
L 2675 672 
L 3284 3500 
L 3853 3500 
L 3034 0 
L 2484 0 
L 1925 1919 
L 1369 0 
L 819 0 
L 0 3500 
z
" transform="scale(0.015625)"/>
      <path id="DejaVuSansMono-4c" d="M 800 3500 
L 2272 3500 
L 2272 447 
L 3413 447 
L 3413 0 
L 556 0 
L 556 447 
L 1697 447 
L 1697 3053 
L 800 3053 
L 800 3500 
z
M 1697 4863 
L 2272 4863 
L 2272 4134 
L 1697 4134 
L 1697 4863 
z
" transform="scale(0.015625)"/>
      <path id="DejaVuSansMono-4a" d="M 2681 1778 
Q 2681 2425 2470 2761 
Q 2259 3097 1856 3097 
Q 1434 3097 1212 2761 
Q 991 2425 991 1778 
Q 991 1131 1214 792 
Q 1438 453 1863 453 
Q 2259 453 2470 793 
Q 2681 1134 2681 1778 
z
M 3256 225 
Q 3256 -563 2884 -969 
Q 2513 -1375 1791 -1375 
Q 1553 -1375 1293 -1331 
Q 1034 -1288 775 -1203 
L 775 -634 
Q 1081 -778 1331 -847 
Q 1581 -916 1791 -916 
Q 2256 -916 2468 -662 
Q 2681 -409 2681 141 
L 2681 166 
L 2681 556 
Q 2544 263 2306 119 
Q 2069 -25 1728 -25 
Q 1116 -25 750 465 
Q 384 956 384 1778 
Q 384 2603 750 3093 
Q 1116 3584 1728 3584 
Q 2066 3584 2300 3450 
Q 2534 3316 2681 3034 
L 2681 3488 
L 3256 3488 
L 3256 225 
z
" transform="scale(0.015625)"/>
      <path id="DejaVuSansMono-4b" d="M 3284 2169 
L 3284 0 
L 2706 0 
L 2706 2169 
Q 2706 2641 2540 2862 
Q 2375 3084 2022 3084 
Q 1619 3084 1401 2798 
Q 1184 2513 1184 1978 
L 1184 0 
L 609 0 
L 609 4863 
L 1184 4863 
L 1184 2975 
Q 1338 3275 1600 3429 
Q 1863 3584 2222 3584 
Q 2756 3584 3020 3232 
Q 3284 2881 3284 2169 
z
" transform="scale(0.015625)"/>
      <path id="DejaVuSansMono-57" d="M 1919 4494 
L 1919 3500 
L 3225 3500 
L 3225 3053 
L 1919 3053 
L 1919 1153 
Q 1919 766 2066 612 
Q 2213 459 2578 459 
L 3225 459 
L 3225 0 
L 2522 0 
Q 1875 0 1609 259 
Q 1344 519 1344 1153 
L 1344 3053 
L 409 3053 
L 409 3500 
L 1344 3500 
L 1344 4494 
L 1919 4494 
z
" transform="scale(0.015625)"/>
      <path id="DejaVuSansMono-3" transform="scale(0.015625)"/>
      <path id="DejaVuSansMono-20" d="M 275 1638 
L 3578 1638 
L 3578 1100 
L 275 1100 
L 275 1638 
z
M 275 2906 
L 3578 2906 
L 3578 2375 
L 275 2375 
L 275 2906 
z
" transform="scale(0.015625)"/>
      <path id="DejaVuSansMono-13" d="M 1509 2344 
Q 1509 2516 1629 2641 
Q 1750 2766 1919 2766 
Q 2094 2766 2219 2641 
Q 2344 2516 2344 2344 
Q 2344 2169 2220 2047 
Q 2097 1925 1919 1925 
Q 1744 1925 1626 2044 
Q 1509 2163 1509 2344 
z
M 1925 4250 
Q 1484 4250 1267 3775 
Q 1050 3300 1050 2328 
Q 1050 1359 1267 884 
Q 1484 409 1925 409 
Q 2369 409 2586 884 
Q 2803 1359 2803 2328 
Q 2803 3300 2586 3775 
Q 2369 4250 1925 4250 
z
M 1925 4750 
Q 2672 4750 3055 4137 
Q 3438 3525 3438 2328 
Q 3438 1134 3055 521 
Q 2672 -91 1925 -91 
Q 1178 -91 797 521 
Q 416 1134 416 2328 
Q 416 3525 797 4137 
Q 1178 4750 1925 4750 
z
" transform="scale(0.015625)"/>
      <path id="DejaVuSansMono-11" d="M 1528 953 
L 2316 953 
L 2316 0 
L 1528 0 
L 1528 953 
z
" transform="scale(0.015625)"/>
      <path id="DejaVuSansMono-16" d="M 2425 2497 
Q 2884 2375 3128 2064 
Q 3372 1753 3372 1288 
Q 3372 644 2939 276 
Q 2506 -91 1741 -91 
Q 1419 -91 1084 -31 
Q 750 28 428 141 
L 428 769 
Q 747 603 1056 522 
Q 1366 441 1672 441 
Q 2191 441 2469 675 
Q 2747 909 2747 1350 
Q 2747 1756 2469 1995 
Q 2191 2234 1716 2234 
L 1234 2234 
L 1234 2753 
L 1716 2753 
Q 2150 2753 2394 2943 
Q 2638 3134 2638 3475 
Q 2638 3834 2411 4026 
Q 2184 4219 1766 4219 
Q 1488 4219 1191 4156 
Q 894 4094 569 3969 
L 569 4550 
Q 947 4650 1242 4700 
Q 1538 4750 1766 4750 
Q 2447 4750 2855 4408 
Q 3263 4066 3263 3500 
Q 3263 3116 3048 2859 
Q 2834 2603 2425 2497 
z
" transform="scale(0.015625)"/>
      <path id="DejaVuSansMono-18" d="M 647 4666 
L 3009 4666 
L 3009 4134 
L 1222 4134 
L 1222 2988 
Q 1356 3038 1492 3061 
Q 1628 3084 1766 3084 
Q 2491 3084 2916 2656 
Q 3341 2228 3341 1497 
Q 3341 759 2895 334 
Q 2450 -91 1678 -91 
Q 1306 -91 998 -41 
Q 691 9 447 109 
L 447 750 
Q 734 594 1025 517 
Q 1316 441 1619 441 
Q 2141 441 2423 716 
Q 2706 991 2706 1497 
Q 2706 1997 2414 2275 
Q 2122 2553 1600 2553 
Q 1347 2553 1106 2495 
Q 866 2438 647 2322 
L 647 4666 
z
" transform="scale(0.015625)"/>
      <path id="DejaVuSansMono-d" d="M 3334 3897 
L 2216 3291 
L 3334 2681 
L 3156 2375 
L 2106 3009 
L 2106 1831 
L 1747 1831 
L 1747 3009 
L 697 2375 
L 519 2681 
L 1638 3291 
L 519 3897 
L 697 4206 
L 1747 3572 
L 1747 4750 
L 2106 4750 
L 2106 3572 
L 3156 4206 
L 3334 3897 
z
" transform="scale(0.015625)"/>
      <path id="DejaVuSansMono-2f" d="M 672 4666 
L 1306 4666 
L 1306 531 
L 3559 531 
L 3559 0 
L 672 0 
L 672 4666 
z
" transform="scale(0.015625)"/>
      <path id="DejaVuSansMono-4e" d="M 738 4863 
L 1331 4863 
L 1331 2047 
L 2841 3500 
L 3541 3500 
L 2163 2181 
L 3756 0 
L 3053 0 
L 1759 1806 
L 1331 1403 
L 1331 0 
L 738 0 
L 738 4863 
z
" transform="scale(0.015625)"/>
      <path id="DejaVuSansMono-e" d="M 2188 3659 
L 2188 2272 
L 3578 2272 
L 3578 1741 
L 2188 1741 
L 2188 353 
L 1663 353 
L 1663 1741 
L 275 1741 
L 275 2272 
L 1663 2272 
L 1663 3659 
L 2188 3659 
z
" transform="scale(0.015625)"/>
      <path id="DejaVuSansMono-1b" d="M 1925 2216 
Q 1503 2216 1273 1980 
Q 1044 1744 1044 1313 
Q 1044 881 1276 642 
Q 1509 403 1925 403 
Q 2350 403 2579 639 
Q 2809 875 2809 1313 
Q 2809 1741 2576 1978 
Q 2344 2216 1925 2216 
z
M 1375 2478 
Q 972 2581 745 2862 
Q 519 3144 519 3541 
Q 519 4097 897 4423 
Q 1275 4750 1925 4750 
Q 2578 4750 2956 4423 
Q 3334 4097 3334 3541 
Q 3334 3144 3107 2862 
Q 2881 2581 2478 2478 
Q 2947 2375 3195 2062 
Q 3444 1750 3444 1253 
Q 3444 622 3041 265 
Q 2638 -91 1925 -91 
Q 1213 -91 811 264 
Q 409 619 409 1247 
Q 409 1747 657 2061 
Q 906 2375 1375 2478 
z
M 1147 3481 
Q 1147 3106 1347 2909 
Q 1547 2713 1925 2713 
Q 2306 2713 2506 2909 
Q 2706 3106 2706 3481 
Q 2706 3863 2507 4063 
Q 2309 4263 1925 4263 
Q 1547 4263 1347 4061 
Q 1147 3859 1147 3481 
z
" transform="scale(0.015625)"/>
      <path id="DejaVuSansMono-35" d="M 2375 2203 
Q 2619 2141 2791 1967 
Q 2963 1794 3219 1275 
L 3853 0 
L 3175 0 
L 2619 1178 
Q 2378 1681 2186 1826 
Q 1994 1972 1684 1972 
L 1081 1972 
L 1081 0 
L 447 0 
L 447 4666 
L 1747 4666 
Q 2516 4666 2925 4319 
Q 3334 3972 3334 3316 
Q 3334 2853 3082 2561 
Q 2831 2269 2375 2203 
z
M 1081 4147 
L 1081 2491 
L 1772 2491 
Q 2225 2491 2447 2694 
Q 2669 2897 2669 3316 
Q 2669 3719 2433 3933 
Q 2197 4147 1747 4147 
L 1081 4147 
z
" transform="scale(0.015625)"/>
      <path id="DejaVuSansMono-1c" d="M 1863 2069 
Q 2266 2069 2495 2359 
Q 2725 2650 2725 3163 
Q 2725 3675 2495 3965 
Q 2266 4256 1863 4256 
Q 1444 4256 1231 3979 
Q 1019 3703 1019 3163 
Q 1019 2619 1230 2344 
Q 1441 2069 1863 2069 
z
M 738 97 
L 738 678 
Q 934 563 1156 502 
Q 1378 441 1619 441 
Q 2219 441 2526 892 
Q 2834 1344 2834 2222 
Q 2688 1909 2422 1742 
Q 2156 1575 1813 1575 
Q 1138 1575 767 1990 
Q 397 2406 397 3169 
Q 397 3922 776 4336 
Q 1156 4750 1850 4750 
Q 2663 4750 3041 4165 
Q 3419 3581 3419 2328 
Q 3419 1150 2964 529 
Q 2509 -91 1644 -91 
Q 1416 -91 1184 -42 
Q 953 6 738 97 
z
" transform="scale(0.015625)"/>
      <path id="DejaVuSansMono-34" d="M 2047 -84 
Q 2025 -84 1984 -87 
Q 1944 -91 1919 -91 
Q 1138 -91 752 509 
Q 366 1109 366 2328 
Q 366 3550 752 4150 
Q 1138 4750 1925 4750 
Q 2716 4750 3102 4150 
Q 3488 3550 3488 2328 
Q 3488 1409 3273 848 
Q 3059 288 2625 63 
L 3250 -531 
L 2778 -844 
L 2047 -84 
z
M 2828 2328 
Q 2828 3356 2617 3797 
Q 2406 4238 1925 4238 
Q 1447 4238 1236 3797 
Q 1025 3356 1025 2328 
Q 1025 1303 1236 862 
Q 1447 422 1925 422 
Q 2406 422 2617 861 
Q 2828 1300 2828 2328 
z
" transform="scale(0.015625)"/>
     </defs>
     <use xlink:href="#DejaVuSansMono-48"/>
     <use xlink:href="#DejaVuSansMono-5b" transform="translate(60.203125 0)"/>
     <use xlink:href="#DejaVuSansMono-53" transform="translate(120.40625 0)"/>
     <use xlink:href="#DejaVuSansMono-52" transform="translate(180.609375 0)"/>
     <use xlink:href="#DejaVuSansMono-56" transform="translate(240.8125 0)"/>
     <use xlink:href="#DejaVuSansMono-58" transform="translate(301.015625 0)"/>
     <use xlink:href="#DejaVuSansMono-55" transform="translate(361.21875 0)"/>
     <use xlink:href="#DejaVuSansMono-48" transform="translate(421.421875 0)"/>
     <use xlink:href="#DejaVuSansMono-42" transform="translate(481.625 0)"/>
     <use xlink:href="#DejaVuSansMono-55" transform="translate(541.828125 0)"/>
     <use xlink:href="#DejaVuSansMono-44" transform="translate(602.03125 0)"/>
     <use xlink:href="#DejaVuSansMono-5a" transform="translate(662.234375 0)"/>
     <use xlink:href="#DejaVuSansMono-42" transform="translate(722.4375 0)"/>
     <use xlink:href="#DejaVuSansMono-5a" transform="translate(782.640625 0)"/>
     <use xlink:href="#DejaVuSansMono-48" transform="translate(842.84375 0)"/>
     <use xlink:href="#DejaVuSansMono-4c" transform="translate(903.046875 0)"/>
     <use xlink:href="#DejaVuSansMono-4a" transform="translate(963.25 0)"/>
     <use xlink:href="#DejaVuSansMono-4b" transform="translate(1023.453125 0)"/>
     <use xlink:href="#DejaVuSansMono-57" transform="translate(1083.65625 0)"/>
     <use xlink:href="#DejaVuSansMono-3" transform="translate(1143.859375 0)"/>
     <use xlink:href="#DejaVuSansMono-20" transform="translate(1204.0625 0)"/>
     <use xlink:href="#DejaVuSansMono-3" transform="translate(1264.265625 0)"/>
     <use xlink:href="#DejaVuSansMono-13" transform="translate(1324.46875 0)"/>
     <use xlink:href="#DejaVuSansMono-11" transform="translate(1384.671875 0)"/>
     <use xlink:href="#DejaVuSansMono-16" transform="translate(1444.875 0)"/>
     <use xlink:href="#DejaVuSansMono-18" transform="translate(1505.078125 0)"/>
     <use xlink:href="#DejaVuSansMono-3" transform="translate(1565.28125 0)"/>
     <use xlink:href="#DejaVuSansMono-d" transform="translate(1625.484375 0)"/>
     <use xlink:href="#DejaVuSansMono-3" transform="translate(1685.6875 0)"/>
     <use xlink:href="#DejaVuSansMono-2f" transform="translate(1745.890625 0)"/>
     <use xlink:href="#DejaVuSansMono-4c" transform="translate(1806.09375 0)"/>
     <use xlink:href="#DejaVuSansMono-4e" transform="translate(1866.296875 0)"/>
     <use xlink:href="#DejaVuSansMono-48" transform="translate(1926.5 0)"/>
     <use xlink:href="#DejaVuSansMono-3" transform="translate(1986.703125 0)"/>
     <use xlink:href="#DejaVuSansMono-e" transform="translate(2046.90625 0)"/>
     <use xlink:href="#DejaVuSansMono-3" transform="translate(2107.109375 0)"/>
     <use xlink:href="#DejaVuSansMono-13" transform="translate(2167.3125 0)"/>
     <use xlink:href="#DejaVuSansMono-11" transform="translate(2227.515625 0)"/>
     <use xlink:href="#DejaVuSansMono-1b" transform="translate(2287.71875 0)"/>
     <use xlink:href="#DejaVuSansMono-13" transform="translate(2347.921875 0)"/>
     <use xlink:href="#DejaVuSansMono-3" transform="translate(2408.125 0)"/>
     <use xlink:href="#DejaVuSansMono-d" transform="translate(2468.328125 0)"/>
     <use xlink:href="#DejaVuSansMono-3" transform="translate(2528.53125 0)"/>
     <use xlink:href="#DejaVuSansMono-35" transform="translate(2588.734375 0)"/>
     <use xlink:href="#DejaVuSansMono-48" transform="translate(2648.9375 0)"/>
     <use xlink:href="#DejaVuSansMono-53" transform="translate(2709.140625 0)"/>
     <use xlink:href="#DejaVuSansMono-52" transform="translate(2769.34375 0)"/>
     <use xlink:href="#DejaVuSansMono-56" transform="translate(2829.546875 0)"/>
     <use xlink:href="#DejaVuSansMono-57" transform="translate(2889.75 0)"/>
     <use xlink:href="#DejaVuSansMono-3" transform="translate(2949.953125 0)"/>
     <use xlink:href="#DejaVuSansMono-e" transform="translate(3010.15625 0)"/>
     <use xlink:href="#DejaVuSansMono-3" transform="translate(3070.359375 0)"/>
     <use xlink:href="#DejaVuSansMono-13" transform="translate(3130.5625 0)"/>
     <use xlink:href="#DejaVuSansMono-11" transform="translate(3190.765625 0)"/>
     <use xlink:href="#DejaVuSansMono-1c" transform="translate(3250.96875 0)"/>
     <use xlink:href="#DejaVuSansMono-13" transform="translate(3311.171875 0)"/>
     <use xlink:href="#DejaVuSansMono-3" transform="translate(3371.375 0)"/>
     <use xlink:href="#DejaVuSansMono-d" transform="translate(3431.578125 0)"/>
     <use xlink:href="#DejaVuSansMono-3" transform="translate(3491.78125 0)"/>
     <use xlink:href="#DejaVuSansMono-34" transform="translate(3551.984375 0)"/>
     <use xlink:href="#DejaVuSansMono-58" transform="translate(3612.1875 0)"/>
     <use xlink:href="#DejaVuSansMono-52" transform="translate(3672.390625 0)"/>
     <use xlink:href="#DejaVuSansMono-57" transform="translate(3732.59375 0)"/>
     <use xlink:href="#DejaVuSansMono-48" transform="translate(3792.796875 0)"/>
    </g>
    <!-- Repeated interactions are summed, log-compressed, and normalized to [0, 1]. -->
    <g style="fill: #1f2430" transform="translate(38.118281 152.430137) scale(0.1 -0.1)">
     <defs>
      <path id="DejaVuSansMono-47" d="M 2681 3053 
L 2681 4863 
L 3256 4863 
L 3256 0 
L 2681 0 
L 2681 441 
Q 2538 181 2298 45 
Q 2059 -91 1747 -91 
Q 1113 -91 748 401 
Q 384 894 384 1759 
Q 384 2613 750 3098 
Q 1116 3584 1747 3584 
Q 2063 3584 2303 3448 
Q 2544 3313 2681 3053 
z
M 991 1747 
Q 991 1078 1203 737 
Q 1416 397 1831 397 
Q 2247 397 2464 740 
Q 2681 1084 2681 1747 
Q 2681 2413 2464 2755 
Q 2247 3097 1831 3097 
Q 1416 3097 1203 2756 
Q 991 2416 991 1747 
z
" transform="scale(0.015625)"/>
      <path id="DejaVuSansMono-51" d="M 3284 2169 
L 3284 0 
L 2706 0 
L 2706 2169 
Q 2706 2641 2540 2862 
Q 2375 3084 2022 3084 
Q 1619 3084 1401 2798 
Q 1184 2513 1184 1978 
L 1184 0 
L 609 0 
L 609 3500 
L 1184 3500 
L 1184 2975 
Q 1338 3275 1600 3429 
Q 1863 3584 2222 3584 
Q 2756 3584 3020 3232 
Q 3284 2881 3284 2169 
z
" transform="scale(0.015625)"/>
      <path id="DejaVuSansMono-46" d="M 3316 178 
Q 3084 44 2839 -23 
Q 2594 -91 2338 -91 
Q 1525 -91 1067 396 
Q 609 884 609 1747 
Q 609 2609 1067 3096 
Q 1525 3584 2338 3584 
Q 2591 3584 2831 3518 
Q 3072 3453 3316 3316 
L 3316 2713 
Q 3088 2916 2858 3006 
Q 2628 3097 2338 3097 
Q 1797 3097 1506 2747 
Q 1216 2397 1216 1747 
Q 1216 1100 1508 748 
Q 1800 397 2338 397 
Q 2638 397 2875 489 
Q 3113 581 3316 775 
L 3316 178 
z
" transform="scale(0.015625)"/>
      <path id="DejaVuSansMono-50" d="M 2113 3144 
Q 2219 3369 2383 3476 
Q 2547 3584 2778 3584 
Q 3200 3584 3373 3257 
Q 3547 2931 3547 2028 
L 3547 0 
L 3022 0 
L 3022 2003 
Q 3022 2744 2939 2923 
Q 2856 3103 2638 3103 
Q 2388 3103 2295 2911 
Q 2203 2719 2203 2003 
L 2203 0 
L 1678 0 
L 1678 2003 
Q 1678 2753 1589 2928 
Q 1500 3103 1269 3103 
Q 1041 3103 952 2911 
Q 863 2719 863 2003 
L 863 0 
L 341 0 
L 341 3500 
L 863 3500 
L 863 3200 
Q 966 3388 1120 3486 
Q 1275 3584 1472 3584 
Q 1709 3584 1867 3475 
Q 2025 3366 2113 3144 
z
" transform="scale(0.015625)"/>
      <path id="DejaVuSansMono-f" d="M 1569 947 
L 2356 947 
L 2356 300 
L 1741 -897 
L 1259 -897 
L 1569 300 
L 1569 947 
z
" transform="scale(0.015625)"/>
      <path id="DejaVuSansMono-4f" d="M 1997 1269 
Q 1997 881 2139 684 
Q 2281 488 2559 488 
L 3231 488 
L 3231 0 
L 2503 0 
Q 1988 0 1705 331 
Q 1422 663 1422 1269 
L 1422 4447 
L 500 4447 
L 500 4897 
L 1997 4897 
L 1997 1269 
z
" transform="scale(0.015625)"/>
      <path id="DejaVuSansMono-10" d="M 1113 2009 
L 2741 2009 
L 2741 1497 
L 1113 1497 
L 1113 2009 
z
" transform="scale(0.015625)"/>
      <path id="DejaVuSansMono-5d" d="M 709 3506 
L 3250 3506 
L 3250 2981 
L 1241 469 
L 3250 469 
L 3250 0 
L 634 0 
L 634 531 
L 2644 3047 
L 709 3047 
L 709 3506 
z
" transform="scale(0.015625)"/>
      <path id="DejaVuSansMono-3e" d="M 1447 4863 
L 2772 4863 
L 2772 4416 
L 2022 4416 
L 2022 -397 
L 2772 -397 
L 2772 -844 
L 1447 -844 
L 1447 4863 
z
" transform="scale(0.015625)"/>
      <path id="DejaVuSansMono-14" d="M 844 531 
L 1825 531 
L 1825 4097 
L 769 3859 
L 769 4434 
L 1819 4666 
L 2450 4666 
L 2450 531 
L 3419 531 
L 3419 0 
L 844 0 
L 844 531 
z
" transform="scale(0.015625)"/>
      <path id="DejaVuSansMono-40" d="M 2406 4863 
L 2406 -844 
L 1081 -844 
L 1081 -397 
L 1831 -397 
L 1831 4416 
L 1081 4416 
L 1081 4863 
L 2406 4863 
z
" transform="scale(0.015625)"/>
     </defs>
     <use xlink:href="#DejaVuSansMono-35"/>
     <use xlink:href="#DejaVuSansMono-48" transform="translate(60.203125 0)"/>
     <use xlink:href="#DejaVuSansMono-53" transform="translate(120.40625 0)"/>
     <use xlink:href="#DejaVuSansMono-48" transform="translate(180.609375 0)"/>
     <use xlink:href="#DejaVuSansMono-44" transform="translate(240.8125 0)"/>
     <use xlink:href="#DejaVuSansMono-57" transform="translate(301.015625 0)"/>
     <use xlink:href="#DejaVuSansMono-48" transform="translate(361.21875 0)"/>
     <use xlink:href="#DejaVuSansMono-47" transform="translate(421.421875 0)"/>
     <use xlink:href="#DejaVuSansMono-3" transform="translate(481.625 0)"/>
     <use xlink:href="#DejaVuSansMono-4c" transform="translate(541.828125 0)"/>
     <use xlink:href="#DejaVuSansMono-51" transform="translate(602.03125 0)"/>
     <use xlink:href="#DejaVuSansMono-57" transform="translate(662.234375 0)"/>
     <use xlink:href="#DejaVuSansMono-48" transform="translate(722.4375 0)"/>
     <use xlink:href="#DejaVuSansMono-55" transform="translate(782.640625 0)"/>
     <use xlink:href="#DejaVuSansMono-44" transform="translate(842.84375 0)"/>
     <use xlink:href="#DejaVuSansMono-46" transform="translate(903.046875 0)"/>
     <use xlink:href="#DejaVuSansMono-57" transform="translate(963.25 0)"/>
     <use xlink:href="#DejaVuSansMono-4c" transform="translate(1023.453125 0)"/>
     <use xlink:href="#DejaVuSansMono-52" transform="translate(1083.65625 0)"/>
     <use xlink:href="#DejaVuSansMono-51" transform="translate(1143.859375 0)"/>
     <use xlink:href="#DejaVuSansMono-56" transform="translate(1204.0625 0)"/>
     <use xlink:href="#DejaVuSansMono-3" transform="translate(1264.265625 0)"/>
     <use xlink:href="#DejaVuSansMono-44" transform="translate(1324.46875 0)"/>
     <use xlink:href="#DejaVuSansMono-55" transform="translate(1384.671875 0)"/>
     <use xlink:href="#DejaVuSansMono-48" transform="translate(1444.875 0)"/>
     <use xlink:href="#DejaVuSansMono-3" transform="translate(1505.078125 0)"/>
     <use xlink:href="#DejaVuSansMono-56" transform="translate(1565.28125 0)"/>
     <use xlink:href="#DejaVuSansMono-58" transform="translate(1625.484375 0)"/>
     <use xlink:href="#DejaVuSansMono-50" transform="translate(1685.6875 0)"/>
     <use xlink:href="#DejaVuSansMono-50" transform="translate(1745.890625 0)"/>
     <use xlink:href="#DejaVuSansMono-48" transform="translate(1806.09375 0)"/>
     <use xlink:href="#DejaVuSansMono-47" transform="translate(1866.296875 0)"/>
     <use xlink:href="#DejaVuSansMono-f" transform="translate(1926.5 0)"/>
     <use xlink:href="#DejaVuSansMono-3" transform="translate(1986.703125 0)"/>
     <use xlink:href="#DejaVuSansMono-4f" transform="translate(2046.90625 0)"/>
     <use xlink:href="#DejaVuSansMono-52" transform="translate(2107.109375 0)"/>
     <use xlink:href="#DejaVuSansMono-4a" transform="translate(2167.3125 0)"/>
     <use xlink:href="#DejaVuSansMono-10" transform="translate(2227.515625 0)"/>
     <use xlink:href="#DejaVuSansMono-46" transform="translate(2287.71875 0)"/>
     <use xlink:href="#DejaVuSansMono-52" transform="translate(2347.921875 0)"/>
     <use xlink:href="#DejaVuSansMono-50" transform="translate(2408.125 0)"/>
     <use xlink:href="#DejaVuSansMono-53" transform="translate(2468.328125 0)"/>
     <use xlink:href="#DejaVuSansMono-55" transform="translate(2528.53125 0)"/>
     <use xlink:href="#DejaVuSansMono-48" transform="translate(2588.734375 0)"/>
     <use xlink:href="#DejaVuSansMono-56" transform="translate(2648.9375 0)"/>
     <use xlink:href="#DejaVuSansMono-56" transform="translate(2709.140625 0)"/>
     <use xlink:href="#DejaVuSansMono-48" transform="translate(2769.34375 0)"/>
     <use xlink:href="#DejaVuSansMono-47" transform="translate(2829.546875 0)"/>
     <use xlink:href="#DejaVuSansMono-f" transform="translate(2889.75 0)"/>
     <use xlink:href="#DejaVuSansMono-3" transform="translate(2949.953125 0)"/>
     <use xlink:href="#DejaVuSansMono-44" transform="translate(3010.15625 0)"/>
     <use xlink:href="#DejaVuSansMono-51" transform="translate(3070.359375 0)"/>
     <use xlink:href="#DejaVuSansMono-47" transform="translate(3130.5625 0)"/>
     <use xlink:href="#DejaVuSansMono-3" transform="translate(3190.765625 0)"/>
     <use xlink:href="#DejaVuSansMono-51" transform="translate(3250.96875 0)"/>
     <use xlink:href="#DejaVuSansMono-52" transform="translate(3311.171875 0)"/>
     <use xlink:href="#DejaVuSansMono-55" transform="translate(3371.375 0)"/>
     <use xlink:href="#DejaVuSansMono-50" transform="translate(3431.578125 0)"/>
     <use xlink:href="#DejaVuSansMono-44" transform="translate(3491.78125 0)"/>
     <use xlink:href="#DejaVuSansMono-4f" transform="translate(3551.984375 0)"/>
     <use xlink:href="#DejaVuSansMono-4c" transform="translate(3612.1875 0)"/>
     <use xlink:href="#DejaVuSansMono-5d" transform="translate(3672.390625 0)"/>
     <use xlink:href="#DejaVuSansMono-48" transform="translate(3732.59375 0)"/>
     <use xlink:href="#DejaVuSansMono-47" transform="translate(3792.796875 0)"/>
     <use xlink:href="#DejaVuSansMono-3" transform="translate(3853 0)"/>
     <use xlink:href="#DejaVuSansMono-57" transform="translate(3913.203125 0)"/>
     <use xlink:href="#DejaVuSansMono-52" transform="translate(3973.40625 0)"/>
     <use xlink:href="#DejaVuSansMono-3" transform="translate(4033.609375 0)"/>
     <use xlink:href="#DejaVuSansMono-3e" transform="translate(4093.8125 0)"/>
     <use xlink:href="#DejaVuSansMono-13" transform="translate(4154.015625 0)"/>
     <use xlink:href="#DejaVuSansMono-f" transform="translate(4214.21875 0)"/>
     <use xlink:href="#DejaVuSansMono-3" transform="translate(4274.421875 0)"/>
     <use xlink:href="#DejaVuSansMono-14" transform="translate(4334.625 0)"/>
     <use xlink:href="#DejaVuSansMono-40" transform="translate(4394.828125 0)"/>
     <use xlink:href="#DejaVuSansMono-11" transform="translate(4455.03125 0)"/>
    </g>
   </g>
  </g>
 </g>
 <defs>
  <clipPath id="p226b1dcbcf">
   <rect x="7.2" y="7.2" width="513.36" height="155.232"/>
  </clipPath>
 </defs>
</svg>
