<?xml version="1.0" encoding="utf-8" standalone="no"?>
<!DOCTYPE svg PUBLIC "-//W3C//DTD SVG 1.1//EN"
  "http://www.w3.org/Graphics/SVG/1.1/DTD/svg11.dtd">
<svg xmlns:xlink="http://www.w3.org/1999/xlink" width="668.512969pt" height="401.941969pt" viewBox="0 0 668.512969 401.941969" xmlns="http://www.w3.org/2000/svg" version="1.1">
 <metadata>
  <rdf:RDF xmlns:dc="http://purl.org/dc/elements/1.1/" xmlns:cc="http://creativecommons.org/ns#" xmlns:rdf="http://www.w3.org/1999/02/22-rdf-syntax-ns#">
   <cc:Work>
    <dc:type rdf:resource="http://purl.org/dc/dcmitype/StillImage"/>
    <dc:date>2026-06-22T21:13:58.662214</dc:date>
    <dc:format>image/svg+xml</dc:format>
    <dc:creator>
     <cc:Agent>
      <dc:title>Matplotlib v3.11.0, https://matplotlib.org/</dc:title>
     </cc:Agent>
    </dc:creator>
   </cc:Work>
  </rdf:RDF>
 </metadata>
 <defs>
  <style type="text/css">*{stroke-linejoin: round; stroke-linecap: butt}</style>
 </defs>
 <g id="figure_1">
  <g id="patch_1">
   <path d="M 0 401.941969 
L 668.512969 401.941969 
L 668.512969 0 
L 0 0 
z
" style="fill: #ffffff"/>
  </g>
  <g id="axes_1">
   <g id="patch_2">
    <path d="M 98.208 332.101969 
L 407.232 332.101969 
L 407.232 23.077969 
L 98.208 23.077969 
z
" style="fill: #ffffff"/>
   </g>
   <g id="matplotlib.axis_1">
    <g id="xtick_1">
     <g id="line2d_1">
      <path d="M 140.067172 332.101969 
L 140.067172 23.077969 
" clip-path="url(#pdee4a97c87)" style="fill: none; stroke: #d8dde6; stroke-width: 0.8; stroke-linecap: square"/>
     </g>
     <g id="line2d_2">
      <defs>
       <path id="m84bed7103a" d="M 0 0 
L 0 3.5 
" style="stroke: #172033; stroke-width: 0.8"/>
      </defs>
      <g>
       <use xlink:href="#m84bed7103a" x="140.067172" y="332.101969" style="fill: #172033; stroke: #172033; stroke-width: 0.8"/>
      </g>
     </g>
     <g id="text_1">
      <!-- −0.4 -->
      <g style="fill: #172033" transform="translate(127.925766 346.699625) scale(0.1 -0.1)">
       <defs>
        <path id="DejaVuSans-c9c" d="M 678 2272 
L 4684 2272 
L 4684 1741 
L 678 1741 
L 678 2272 
z
" transform="scale(0.015625)"/>
        <path id="DejaVuSans-13" d="M 2034 4250 
Q 1547 4250 1301 3770 
Q 1056 3291 1056 2328 
Q 1056 1369 1301 889 
Q 1547 409 2034 409 
Q 2525 409 2770 889 
Q 3016 1369 3016 2328 
Q 3016 3291 2770 3770 
Q 2525 4250 2034 4250 
z
M 2034 4750 
Q 2819 4750 3233 4129 
Q 3647 3509 3647 2328 
Q 3647 1150 3233 529 
Q 2819 -91 2034 -91 
Q 1250 -91 836 529 
Q 422 1150 422 2328 
Q 422 3509 836 4129 
Q 1250 4750 2034 4750 
z
" transform="scale(0.015625)"/>
        <path id="DejaVuSans-11" d="M 684 794 
L 1344 794 
L 1344 0 
L 684 0 
L 684 794 
z
" transform="scale(0.015625)"/>
        <path id="DejaVuSans-17" d="M 2419 4116 
L 825 1625 
L 2419 1625 
L 2419 4116 
z
M 2253 4666 
L 3047 4666 
L 3047 1625 
L 3713 1625 
L 3713 1100 
L 3047 1100 
L 3047 0 
L 2419 0 
L 2419 1100 
L 313 1100 
L 313 1709 
L 2253 4666 
z
" transform="scale(0.015625)"/>
       </defs>
       <use xlink:href="#DejaVuSans-c9c"/>
       <use xlink:href="#DejaVuSans-13" transform="translate(83.796875 0)"/>
       <use xlink:href="#DejaVuSans-11" transform="translate(147.421875 0)"/>
       <use xlink:href="#DejaVuSans-17" transform="translate(179.203125 0)"/>
      </g>
     </g>
    </g>
    <g id="xtick_2">
     <g id="line2d_3">
      <path d="M 196.393586 332.101969 
L 196.393586 23.077969 
" clip-path="url(#pdee4a97c87)" style="fill: none; stroke: #d8dde6; stroke-width: 0.8; stroke-linecap: square"/>
     </g>
     <g id="line2d_4">
      <g>
       <use xlink:href="#m84bed7103a" x="196.393586" y="332.101969" style="fill: #172033; stroke: #172033; stroke-width: 0.8"/>
      </g>
     </g>
     <g id="text_2">
      <!-- −0.2 -->
      <g style="fill: #172033" transform="translate(184.25218 346.699625) scale(0.1 -0.1)">
       <defs>
        <path id="DejaVuSans-15" d="M 1228 531 
L 3431 531 
L 3431 0 
L 469 0 
L 469 531 
Q 828 903 1448 1529 
Q 2069 2156 2228 2338 
Q 2531 2678 2651 2914 
Q 2772 3150 2772 3378 
Q 2772 3750 2511 3984 
Q 2250 4219 1831 4219 
Q 1534 4219 1204 4116 
Q 875 4013 500 3803 
L 500 4441 
Q 881 4594 1212 4672 
Q 1544 4750 1819 4750 
Q 2544 4750 2975 4387 
Q 3406 4025 3406 3419 
Q 3406 3131 3298 2873 
Q 3191 2616 2906 2266 
Q 2828 2175 2409 1742 
Q 1991 1309 1228 531 
z
" transform="scale(0.015625)"/>
       </defs>
       <use xlink:href="#DejaVuSans-c9c"/>
       <use xlink:href="#DejaVuSans-13" transform="translate(83.796875 0)"/>
       <use xlink:href="#DejaVuSans-11" transform="translate(147.421875 0)"/>
       <use xlink:href="#DejaVuSans-15" transform="translate(179.203125 0)"/>
      </g>
     </g>
    </g>
    <g id="xtick_3">
     <g id="line2d_5">
      <path d="M 252.72 332.101969 
L 252.72 23.077969 
" clip-path="url(#pdee4a97c87)" style="fill: none; stroke: #d8dde6; stroke-width: 0.8; stroke-linecap: square"/>
     </g>
     <g id="line2d_6">
      <g>
       <use xlink:href="#m84bed7103a" x="252.72" y="332.101969" style="fill: #172033; stroke: #172033; stroke-width: 0.8"/>
      </g>
     </g>
     <g id="text_3">
      <!-- 0.0 -->
      <g style="fill: #172033" transform="translate(244.768438 346.699625) scale(0.1 -0.1)">
       <use xlink:href="#DejaVuSans-13"/>
       <use xlink:href="#DejaVuSans-11" transform="translate(63.625 0)"/>
       <use xlink:href="#DejaVuSans-13" transform="translate(95.40625 0)"/>
      </g>
     </g>
    </g>
    <g id="xtick_4">
     <g id="line2d_7">
      <path d="M 309.046414 332.101969 
L 309.046414 23.077969 
" clip-path="url(#pdee4a97c87)" style="fill: none; stroke: #d8dde6; stroke-width: 0.8; stroke-linecap: square"/>
     </g>
     <g id="line2d_8">
      <g>
       <use xlink:href="#m84bed7103a" x="309.046414" y="332.101969" style="fill: #172033; stroke: #172033; stroke-width: 0.8"/>
      </g>
     </g>
     <g id="text_4">
      <!-- 0.2 -->
      <g style="fill: #172033" transform="translate(301.094851 346.699625) scale(0.1 -0.1)">
       <use xlink:href="#DejaVuSans-13"/>
       <use xlink:href="#DejaVuSans-11" transform="translate(63.625 0)"/>
       <use xlink:href="#DejaVuSans-15" transform="translate(95.40625 0)"/>
      </g>
     </g>
    </g>
    <g id="xtick_5">
     <g id="line2d_9">
      <path d="M 365.372828 332.101969 
L 365.372828 23.077969 
" clip-path="url(#pdee4a97c87)" style="fill: none; stroke: #d8dde6; stroke-width: 0.8; stroke-linecap: square"/>
     </g>
     <g id="line2d_10">
      <g>
       <use xlink:href="#m84bed7103a" x="365.372828" y="332.101969" style="fill: #172033; stroke: #172033; stroke-width: 0.8"/>
      </g>
     </g>
     <g id="text_5">
      <!-- 0.4 -->
      <g style="fill: #172033" transform="translate(357.421265 346.699625) scale(0.1 -0.1)">
       <use xlink:href="#DejaVuSans-13"/>
       <use xlink:href="#DejaVuSans-11" transform="translate(63.625 0)"/>
       <use xlink:href="#DejaVuSans-17" transform="translate(95.40625 0)"/>
      </g>
     </g>
    </g>
    <g id="text_6">
     <!-- Direct effect model beta -->
     <g style="fill: #172033" transform="translate(191.830938 360.700406) scale(0.1 -0.1)">
      <defs>
       <path id="DejaVuSans-27" d="M 1259 4147 
L 1259 519 
L 2022 519 
Q 2988 519 3436 956 
Q 3884 1394 3884 2338 
Q 3884 3275 3436 3711 
Q 2988 4147 2022 4147 
L 1259 4147 
z
M 628 4666 
L 1925 4666 
Q 3281 4666 3915 4102 
Q 4550 3538 4550 2338 
Q 4550 1131 3912 565 
Q 3275 0 1925 0 
L 628 0 
L 628 4666 
z
" transform="scale(0.015625)"/>
       <path id="DejaVuSans-4c" d="M 603 3500 
L 1178 3500 
L 1178 0 
L 603 0 
L 603 3500 
z
M 603 4863 
L 1178 4863 
L 1178 4134 
L 603 4134 
L 603 4863 
z
" transform="scale(0.015625)"/>
       <path id="DejaVuSans-55" d="M 2631 2963 
Q 2534 3019 2420 3045 
Q 2306 3072 2169 3072 
Q 1681 3072 1420 2755 
Q 1159 2438 1159 1844 
L 1159 0 
L 581 0 
L 581 3500 
L 1159 3500 
L 1159 2956 
Q 1341 3275 1631 3429 
Q 1922 3584 2338 3584 
Q 2397 3584 2469 3576 
Q 2541 3569 2628 3553 
L 2631 2963 
z
" transform="scale(0.015625)"/>
       <path id="DejaVuSans-48" d="M 3597 1894 
L 3597 1613 
L 953 1613 
Q 991 1019 1311 708 
Q 1631 397 2203 397 
Q 2534 397 2845 478 
Q 3156 559 3463 722 
L 3463 178 
Q 3153 47 2828 -22 
Q 2503 -91 2169 -91 
Q 1331 -91 842 396 
Q 353 884 353 1716 
Q 353 2575 817 3079 
Q 1281 3584 2069 3584 
Q 2775 3584 3186 3129 
Q 3597 2675 3597 1894 
z
M 3022 2063 
Q 3016 2534 2758 2815 
Q 2500 3097 2075 3097 
Q 1594 3097 1305 2825 
Q 1016 2553 972 2059 
L 3022 2063 
z
" transform="scale(0.015625)"/>
       <path id="DejaVuSans-46" d="M 3122 3366 
L 3122 2828 
Q 2878 2963 2633 3030 
Q 2388 3097 2138 3097 
Q 1578 3097 1268 2742 
Q 959 2388 959 1747 
Q 959 1106 1268 751 
Q 1578 397 2138 397 
Q 2388 397 2633 464 
Q 2878 531 3122 666 
L 3122 134 
Q 2881 22 2623 -34 
Q 2366 -91 2075 -91 
Q 1284 -91 818 406 
Q 353 903 353 1747 
Q 353 2603 823 3093 
Q 1294 3584 2113 3584 
Q 2378 3584 2631 3529 
Q 2884 3475 3122 3366 
z
" transform="scale(0.015625)"/>
       <path id="DejaVuSans-57" d="M 1172 4494 
L 1172 3500 
L 2356 3500 
L 2356 3053 
L 1172 3053 
L 1172 1153 
Q 1172 725 1289 603 
Q 1406 481 1766 481 
L 2356 481 
L 2356 0 
L 1766 0 
Q 1100 0 847 248 
Q 594 497 594 1153 
L 594 3053 
L 172 3053 
L 172 3500 
L 594 3500 
L 594 4494 
L 1172 4494 
z
" transform="scale(0.015625)"/>
       <path id="DejaVuSans-3" transform="scale(0.015625)"/>
       <path id="DejaVuSans-13ae" d="M 4531 4863 
L 4531 4384 
L 3981 4384 
Q 3672 4384 3551 4259 
Q 3431 4134 3431 3809 
L 3431 3500 
L 4378 3500 
L 4378 3053 
L 3431 3053 
L 3431 0 
L 2853 0 
L 2853 3053 
L 1275 3053 
L 1275 0 
L 697 0 
L 697 3053 
L 147 3053 
L 147 3500 
L 697 3500 
L 697 3744 
Q 697 4328 969 4595 
Q 1241 4863 1831 4863 
L 2375 4863 
L 2375 4384 
L 1825 4384 
Q 1516 4384 1394 4259 
Q 1275 4134 1275 3809 
L 1275 3500 
L 2853 3500 
L 2853 3744 
Q 2853 4328 3125 4595 
Q 3397 4863 3988 4863 
L 4531 4863 
z
" transform="scale(0.015625)"/>
       <path id="DejaVuSans-50" d="M 3328 2828 
Q 3544 3216 3844 3400 
Q 4144 3584 4550 3584 
Q 5097 3584 5394 3201 
Q 5691 2819 5691 2113 
L 5691 0 
L 5113 0 
L 5113 2094 
Q 5113 2597 4934 2840 
Q 4756 3084 4391 3084 
Q 3944 3084 3684 2787 
Q 3425 2491 3425 1978 
L 3425 0 
L 2847 0 
L 2847 2094 
Q 2847 2600 2669 2842 
Q 2491 3084 2119 3084 
Q 1678 3084 1418 2786 
Q 1159 2488 1159 1978 
L 1159 0 
L 581 0 
L 581 3500 
L 1159 3500 
L 1159 2956 
Q 1356 3278 1631 3431 
Q 1906 3584 2284 3584 
Q 2666 3584 2933 3390 
Q 3200 3197 3328 2828 
z
" transform="scale(0.015625)"/>
       <path id="DejaVuSans-52" d="M 1959 3097 
Q 1497 3097 1228 2736 
Q 959 2375 959 1747 
Q 959 1119 1226 758 
Q 1494 397 1959 397 
Q 2419 397 2687 759 
Q 2956 1122 2956 1747 
Q 2956 2369 2687 2733 
Q 2419 3097 1959 3097 
z
M 1959 3584 
Q 2709 3584 3137 3096 
Q 3566 2609 3566 1747 
Q 3566 888 3137 398 
Q 2709 -91 1959 -91 
Q 1206 -91 779 398 
Q 353 888 353 1747 
Q 353 2609 779 3096 
Q 1206 3584 1959 3584 
z
" transform="scale(0.015625)"/>
       <path id="DejaVuSans-47" d="M 2906 2969 
L 2906 4863 
L 3481 4863 
L 3481 0 
L 2906 0 
L 2906 525 
Q 2725 213 2448 61 
Q 2172 -91 1784 -91 
Q 1150 -91 751 415 
Q 353 922 353 1747 
Q 353 2572 751 3078 
Q 1150 3584 1784 3584 
Q 2172 3584 2448 3432 
Q 2725 3281 2906 2969 
z
M 947 1747 
Q 947 1113 1208 752 
Q 1469 391 1925 391 
Q 2381 391 2643 752 
Q 2906 1113 2906 1747 
Q 2906 2381 2643 2742 
Q 2381 3103 1925 3103 
Q 1469 3103 1208 2742 
Q 947 2381 947 1747 
z
" transform="scale(0.015625)"/>
       <path id="DejaVuSans-4f" d="M 603 4863 
L 1178 4863 
L 1178 0 
L 603 0 
L 603 4863 
z
" transform="scale(0.015625)"/>
       <path id="DejaVuSans-45" d="M 3116 1747 
Q 3116 2381 2855 2742 
Q 2594 3103 2138 3103 
Q 1681 3103 1420 2742 
Q 1159 2381 1159 1747 
Q 1159 1113 1420 752 
Q 1681 391 2138 391 
Q 2594 391 2855 752 
Q 3116 1113 3116 1747 
z
M 1159 2969 
Q 1341 3281 1617 3432 
Q 1894 3584 2278 3584 
Q 2916 3584 3314 3078 
Q 3713 2572 3713 1747 
Q 3713 922 3314 415 
Q 2916 -91 2278 -91 
Q 1894 -91 1617 61 
Q 1341 213 1159 525 
L 1159 0 
L 581 0 
L 581 4863 
L 1159 4863 
L 1159 2969 
z
" transform="scale(0.015625)"/>
       <path id="DejaVuSans-44" d="M 2194 1759 
Q 1497 1759 1228 1600 
Q 959 1441 959 1056 
Q 959 750 1161 570 
Q 1363 391 1709 391 
Q 2188 391 2477 730 
Q 2766 1069 2766 1631 
L 2766 1759 
L 2194 1759 
z
M 3341 1997 
L 3341 0 
L 2766 0 
L 2766 531 
Q 2569 213 2275 61 
Q 1981 -91 1556 -91 
Q 1019 -91 701 211 
Q 384 513 384 1019 
Q 384 1609 779 1909 
Q 1175 2209 1959 2209 
L 2766 2209 
L 2766 2266 
Q 2766 2663 2505 2880 
Q 2244 3097 1772 3097 
Q 1472 3097 1187 3025 
Q 903 2953 641 2809 
L 641 3341 
Q 956 3463 1253 3523 
Q 1550 3584 1831 3584 
Q 2591 3584 2966 3190 
Q 3341 2797 3341 1997 
z
" transform="scale(0.015625)"/>
      </defs>
      <use xlink:href="#DejaVuSans-27"/>
      <use xlink:href="#DejaVuSans-4c" transform="translate(77 0)"/>
      <use xlink:href="#DejaVuSans-55" transform="translate(104.78125 0)"/>
      <use xlink:href="#DejaVuSans-48" transform="translate(143.6875 0)"/>
      <use xlink:href="#DejaVuSans-46" transform="translate(205.21875 0)"/>
      <use xlink:href="#DejaVuSans-57" transform="translate(260.203125 0)"/>
      <use xlink:href="#DejaVuSans-3" transform="translate(299.40625 0)"/>
      <use xlink:href="#DejaVuSans-48" transform="translate(331.1875 0)"/>
      <use xlink:href="#DejaVuSans-13ae" transform="translate(392.71875 0)"/>
      <use xlink:href="#DejaVuSans-48" transform="translate(461.609375 0)"/>
      <use xlink:href="#DejaVuSans-46" transform="translate(523.140625 0)"/>
      <use xlink:href="#DejaVuSans-57" transform="translate(578.125 0)"/>
      <use xlink:href="#DejaVuSans-3" transform="translate(617.328125 0)"/>
      <use xlink:href="#DejaVuSans-50" transform="translate(649.109375 0)"/>
      <use xlink:href="#DejaVuSans-52" transform="translate(746.515625 0)"/>
      <use xlink:href="#DejaVuSans-47" transform="translate(807.703125 0)"/>
      <use xlink:href="#DejaVuSans-48" transform="translate(871.1875 0)"/>
      <use xlink:href="#DejaVuSans-4f" transform="translate(932.71875 0)"/>
      <use xlink:href="#DejaVuSans-3" transform="translate(960.5 0)"/>
      <use xlink:href="#DejaVuSans-45" transform="translate(992.28125 0)"/>
      <use xlink:href="#DejaVuSans-48" transform="translate(1055.765625 0)"/>
      <use xlink:href="#DejaVuSans-57" transform="translate(1117.296875 0)"/>
      <use xlink:href="#DejaVuSans-44" transform="translate(1156.5 0)"/>
     </g>
    </g>
   </g>
   <g id="matplotlib.axis_2">
    <g id="ytick_1">
     <g id="line2d_11">
      <path d="M 98.208 290.242797 
L 407.232 290.242797 
" clip-path="url(#pdee4a97c87)" style="fill: none; stroke: #d8dde6; stroke-width: 0.8; stroke-linecap: square"/>
     </g>
     <g id="line2d_12">
      <defs>
       <path id="m02bb0b61d0" d="M 0 0 
L -3.5 0 
" style="stroke: #172033; stroke-width: 0.8"/>
      </defs>
      <g>
       <use xlink:href="#m02bb0b61d0" x="98.208" y="290.242797" style="fill: #172033; stroke: #172033; stroke-width: 0.8"/>
      </g>
     </g>
     <g id="text_7">
      <!-- −0.4 -->
      <g style="fill: #172033" transform="translate(66.925188 294.041625) scale(0.1 -0.1)">
       <use xlink:href="#DejaVuSans-c9c"/>
       <use xlink:href="#DejaVuSans-13" transform="translate(83.796875 0)"/>
       <use xlink:href="#DejaVuSans-11" transform="translate(147.421875 0)"/>
       <use xlink:href="#DejaVuSans-17" transform="translate(179.203125 0)"/>
      </g>
     </g>
    </g>
    <g id="ytick_2">
     <g id="line2d_13">
      <path d="M 98.208 233.916383 
L 407.232 233.916383 
" clip-path="url(#pdee4a97c87)" style="fill: none; stroke: #d8dde6; stroke-width: 0.8; stroke-linecap: square"/>
     </g>
     <g id="line2d_14">
      <g>
       <use xlink:href="#m02bb0b61d0" x="98.208" y="233.916383" style="fill: #172033; stroke: #172033; stroke-width: 0.8"/>
      </g>
     </g>
     <g id="text_8">
      <!-- −0.2 -->
      <g style="fill: #172033" transform="translate(66.925188 237.715211) scale(0.1 -0.1)">
       <use xlink:href="#DejaVuSans-c9c"/>
       <use xlink:href="#DejaVuSans-13" transform="translate(83.796875 0)"/>
       <use xlink:href="#DejaVuSans-11" transform="translate(147.421875 0)"/>
       <use xlink:href="#DejaVuSans-15" transform="translate(179.203125 0)"/>
      </g>
     </g>
    </g>
    <g id="ytick_3">
     <g id="line2d_15">
      <path d="M 98.208 177.589969 
L 407.232 177.589969 
" clip-path="url(#pdee4a97c87)" style="fill: none; stroke: #d8dde6; stroke-width: 0.8; stroke-linecap: square"/>
     </g>
     <g id="line2d_16">
      <g>
       <use xlink:href="#m02bb0b61d0" x="98.208" y="177.589969" style="fill: #172033; stroke: #172033; stroke-width: 0.8"/>
      </g>
     </g>
     <g id="text_9">
      <!-- 0.0 -->
      <g style="fill: #172033" transform="translate(75.304875 181.388797) scale(0.1 -0.1)">
       <use xlink:href="#DejaVuSans-13"/>
       <use xlink:href="#DejaVuSans-11" transform="translate(63.625 0)"/>
       <use xlink:href="#DejaVuSans-13" transform="translate(95.40625 0)"/>
      </g>
     </g>
    </g>
    <g id="ytick_4">
     <g id="line2d_17">
      <path d="M 98.208 121.263555 
L 407.232 121.263555 
" clip-path="url(#pdee4a97c87)" style="fill: none; stroke: #d8dde6; stroke-width: 0.8; stroke-linecap: square"/>
     </g>
     <g id="line2d_18">
      <g>
       <use xlink:href="#m02bb0b61d0" x="98.208" y="121.263555" style="fill: #172033; stroke: #172033; stroke-width: 0.8"/>
      </g>
     </g>
     <g id="text_10">
      <!-- 0.2 -->
      <g style="fill: #172033" transform="translate(75.304875 125.062383) scale(0.1 -0.1)">
       <use xlink:href="#DejaVuSans-13"/>
       <use xlink:href="#DejaVuSans-11" transform="translate(63.625 0)"/>
       <use xlink:href="#DejaVuSans-15" transform="translate(95.40625 0)"/>
      </g>
     </g>
    </g>
    <g id="ytick_5">
     <g id="line2d_19">
      <path d="M 98.208 64.937141 
L 407.232 64.937141 
" clip-path="url(#pdee4a97c87)" style="fill: none; stroke: #d8dde6; stroke-width: 0.8; stroke-linecap: square"/>
     </g>
     <g id="line2d_20">
      <g>
       <use xlink:href="#m02bb0b61d0" x="98.208" y="64.937141" style="fill: #172033; stroke: #172033; stroke-width: 0.8"/>
      </g>
     </g>
     <g id="text_11">
      <!-- 0.4 -->
      <g style="fill: #172033" transform="translate(75.304875 68.735969) scale(0.1 -0.1)">
       <use xlink:href="#DejaVuSans-13"/>
       <use xlink:href="#DejaVuSans-11" transform="translate(63.625 0)"/>
       <use xlink:href="#DejaVuSans-17" transform="translate(95.40625 0)"/>
      </g>
     </g>
    </g>
    <g id="text_12">
     <!-- Network increment model beta -->
     <g style="fill: #172033" transform="translate(60.522844 255.482937) rotate(-90) scale(0.1 -0.1)">
      <defs>
       <path id="DejaVuSans-31" d="M 628 4666 
L 1478 4666 
L 3547 763 
L 3547 4666 
L 4159 4666 
L 4159 0 
L 3309 0 
L 1241 3903 
L 1241 0 
L 628 0 
L 628 4666 
z
" transform="scale(0.015625)"/>
       <path id="DejaVuSans-5a" d="M 269 3500 
L 844 3500 
L 1563 769 
L 2278 3500 
L 2956 3500 
L 3675 769 
L 4391 3500 
L 4966 3500 
L 4050 0 
L 3372 0 
L 2619 2869 
L 1863 0 
L 1184 0 
L 269 3500 
z
" transform="scale(0.015625)"/>
       <path id="DejaVuSans-4e" d="M 581 4863 
L 1159 4863 
L 1159 1991 
L 2875 3500 
L 3609 3500 
L 1753 1863 
L 3688 0 
L 2938 0 
L 1159 1709 
L 1159 0 
L 581 0 
L 581 4863 
z
" transform="scale(0.015625)"/>
       <path id="DejaVuSans-51" d="M 3513 2113 
L 3513 0 
L 2938 0 
L 2938 2094 
Q 2938 2591 2744 2837 
Q 2550 3084 2163 3084 
Q 1697 3084 1428 2787 
Q 1159 2491 1159 1978 
L 1159 0 
L 581 0 
L 581 3500 
L 1159 3500 
L 1159 2956 
Q 1366 3272 1645 3428 
Q 1925 3584 2291 3584 
Q 2894 3584 3203 3211 
Q 3513 2838 3513 2113 
z
" transform="scale(0.015625)"/>
      </defs>
      <use xlink:href="#DejaVuSans-31"/>
      <use xlink:href="#DejaVuSans-48" transform="translate(74.8125 0)"/>
      <use xlink:href="#DejaVuSans-57" transform="translate(136.34375 0)"/>
      <use xlink:href="#DejaVuSans-5a" transform="translate(175.546875 0)"/>
      <use xlink:href="#DejaVuSans-52" transform="translate(257.328125 0)"/>
      <use xlink:href="#DejaVuSans-55" transform="translate(318.515625 0)"/>
      <use xlink:href="#DejaVuSans-4e" transform="translate(359.625 0)"/>
      <use xlink:href="#DejaVuSans-3" transform="translate(417.53125 0)"/>
      <use xlink:href="#DejaVuSans-4c" transform="translate(449.3125 0)"/>
      <use xlink:href="#DejaVuSans-51" transform="translate(477.09375 0)"/>
      <use xlink:href="#DejaVuSans-46" transform="translate(540.46875 0)"/>
      <use xlink:href="#DejaVuSans-55" transform="translate(595.453125 0)"/>
      <use xlink:href="#DejaVuSans-48" transform="translate(634.359375 0)"/>
      <use xlink:href="#DejaVuSans-50" transform="translate(695.890625 0)"/>
      <use xlink:href="#DejaVuSans-48" transform="translate(793.296875 0)"/>
      <use xlink:href="#DejaVuSans-51" transform="translate(854.828125 0)"/>
      <use xlink:href="#DejaVuSans-57" transform="translate(918.203125 0)"/>
      <use xlink:href="#DejaVuSans-3" transform="translate(957.40625 0)"/>
      <use xlink:href="#DejaVuSans-50" transform="translate(989.1875 0)"/>
      <use xlink:href="#DejaVuSans-52" transform="translate(1086.59375 0)"/>
      <use xlink:href="#DejaVuSans-47" transform="translate(1147.78125 0)"/>
      <use xlink:href="#DejaVuSans-48" transform="translate(1211.265625 0)"/>
      <use xlink:href="#DejaVuSans-4f" transform="translate(1272.796875 0)"/>
      <use xlink:href="#DejaVuSans-3" transform="translate(1300.578125 0)"/>
      <use xlink:href="#DejaVuSans-45" transform="translate(1332.359375 0)"/>
      <use xlink:href="#DejaVuSans-48" transform="translate(1395.84375 0)"/>
      <use xlink:href="#DejaVuSans-57" transform="translate(1457.375 0)"/>
      <use xlink:href="#DejaVuSans-44" transform="translate(1496.578125 0)"/>
     </g>
    </g>
   </g>
   <g id="line2d_21">
    <path d="M 98.208 177.589969 
L 407.232 177.589969 
" clip-path="url(#pdee4a97c87)" style="fill: none; stroke: #d0d5de; stroke-linecap: square"/>
   </g>
   <g id="line2d_22">
    <path d="M 252.72 332.101969 
L 252.72 23.077969 
" clip-path="url(#pdee4a97c87)" style="fill: none; stroke: #d0d5de; stroke-linecap: square"/>
   </g>
   <g id="line2d_23">
    <path d="M 98.208 332.101969 
L 407.232 23.077969 
" clip-path="url(#pdee4a97c87)" style="fill: none; stroke-dasharray: 4.07,1.76; stroke-dashoffset: 0; stroke: #6b7280; stroke-width: 1.1"/>
   </g>
   <g id="patch_3">
    <path d="M 98.208 332.101969 
L 98.208 23.077969 
" style="fill: none; stroke: #c7ced8; stroke-width: 0.8; stroke-linejoin: miter; stroke-linecap: square"/>
   </g>
   <g id="patch_4">
    <path d="M 407.232 332.101969 
L 407.232 23.077969 
" style="fill: none; stroke: #c7ced8; stroke-width: 0.8; stroke-linejoin: miter; stroke-linecap: square"/>
   </g>
   <g id="patch_5">
    <path d="M 98.208 332.101969 
L 407.232 332.101969 
" style="fill: none; stroke: #c7ced8; stroke-width: 0.8; stroke-linejoin: miter; stroke-linecap: square"/>
   </g>
   <g id="patch_6">
    <path d="M 98.208 23.077969 
L 407.232 23.077969 
" style="fill: none; stroke: #c7ced8; stroke-width: 0.8; stroke-linejoin: miter; stroke-linecap: square"/>
   </g>
   <g id="PathCollection_1">
    <defs>
     <path id="mc1d1608661" d="M 0 4.41588 
C 1.171105 4.41588 2.294403 3.950595 3.122499 3.122499 
C 3.950595 2.294403 4.41588 1.171105 4.41588 0 
C 4.41588 -1.171105 3.950595 -2.294403 3.122499 -3.122499 
C 2.294403 -3.950595 1.171105 -4.41588 0 -4.41588 
C -1.171105 -4.41588 -2.294403 -3.950595 -3.122499 -3.122499 
C -3.950595 -2.294403 -4.41588 -1.171105 -4.41588 0 
C -4.41588 1.171105 -3.950595 2.294403 -3.122499 3.122499 
C -2.294403 3.950595 -1.171105 4.41588 0 4.41588 
z
" style="stroke: #ffffff; stroke-width: 0.9"/>
    </defs>
    <g clip-path="url(#pdee4a97c87)">
     <use xlink:href="#mc1d1608661" x="214.173404" y="193.654934" style="fill: #8f6bae; stroke: #ffffff; stroke-width: 0.9"/>
     <use xlink:href="#mc1d1608661" x="352.020617" y="134.085094" style="fill: #8f6bae; stroke: #ffffff; stroke-width: 0.9"/>
     <use xlink:href="#mc1d1608661" x="203.524904" y="256.768677" style="fill: #8f6bae; stroke: #ffffff; stroke-width: 0.9"/>
     <use xlink:href="#mc1d1608661" x="278.6931" y="102.030305" style="fill: #8f6bae; stroke: #ffffff; stroke-width: 0.9"/>
     <use xlink:href="#mc1d1608661" x="248.760003" y="109.20603" style="fill: #8f6bae; stroke: #ffffff; stroke-width: 0.9"/>
     <use xlink:href="#mc1d1608661" x="384.701434" y="82.855274" style="fill: #8f6bae; stroke: #ffffff; stroke-width: 0.9"/>
    </g>
   </g>
   <g id="text_13">
    <!-- Age -->
    <g style="fill: #172033" transform="translate(219.806045 202.103896) scale(0.09 -0.09)">
     <defs>
      <path id="DejaVuSans-24" d="M 2188 4044 
L 1331 1722 
L 3047 1722 
L 2188 4044 
z
M 1831 4666 
L 2547 4666 
L 4325 0 
L 3669 0 
L 3244 1197 
L 1141 1197 
L 716 0 
L 50 0 
L 1831 4666 
z
" transform="scale(0.015625)"/>
      <path id="DejaVuSans-4a" d="M 2906 1791 
Q 2906 2416 2648 2759 
Q 2391 3103 1925 3103 
Q 1463 3103 1205 2759 
Q 947 2416 947 1791 
Q 947 1169 1205 825 
Q 1463 481 1925 481 
Q 2391 481 2648 825 
Q 2906 1169 2906 1791 
z
M 3481 434 
Q 3481 -459 3084 -895 
Q 2688 -1331 1869 -1331 
Q 1566 -1331 1297 -1286 
Q 1028 -1241 775 -1147 
L 775 -588 
Q 1028 -725 1275 -790 
Q 1522 -856 1778 -856 
Q 2344 -856 2625 -561 
Q 2906 -266 2906 331 
L 2906 616 
Q 2728 306 2450 153 
Q 2172 0 1784 0 
Q 1141 0 747 490 
Q 353 981 353 1791 
Q 353 2603 747 3093 
Q 1141 3584 1784 3584 
Q 2172 3584 2450 3431 
Q 2728 3278 2906 2969 
L 2906 3500 
L 3481 3500 
L 3481 434 
z
" transform="scale(0.015625)"/>
     </defs>
     <use xlink:href="#DejaVuSans-24"/>
     <use xlink:href="#DejaVuSans-4a" transform="translate(68.40625 0)"/>
     <use xlink:href="#DejaVuSans-48" transform="translate(131.890625 0)"/>
    </g>
   </g>
   <g id="text_14">
    <!-- Openness -->
    <g style="fill: #172033" transform="translate(357.653259 131.268773) scale(0.09 -0.09)">
     <defs>
      <path id="DejaVuSans-32" d="M 2522 4238 
Q 1834 4238 1429 3725 
Q 1025 3213 1025 2328 
Q 1025 1447 1429 934 
Q 1834 422 2522 422 
Q 3209 422 3611 934 
Q 4013 1447 4013 2328 
Q 4013 3213 3611 3725 
Q 3209 4238 2522 4238 
z
M 2522 4750 
Q 3503 4750 4090 4092 
Q 4678 3434 4678 2328 
Q 4678 1225 4090 567 
Q 3503 -91 2522 -91 
Q 1538 -91 948 565 
Q 359 1222 359 2328 
Q 359 3434 948 4092 
Q 1538 4750 2522 4750 
z
" transform="scale(0.015625)"/>
      <path id="DejaVuSans-53" d="M 1159 525 
L 1159 -1331 
L 581 -1331 
L 581 3500 
L 1159 3500 
L 1159 2969 
Q 1341 3281 1617 3432 
Q 1894 3584 2278 3584 
Q 2916 3584 3314 3078 
Q 3713 2572 3713 1747 
Q 3713 922 3314 415 
Q 2916 -91 2278 -91 
Q 1894 -91 1617 61 
Q 1341 213 1159 525 
z
M 3116 1747 
Q 3116 2381 2855 2742 
Q 2594 3103 2138 3103 
Q 1681 3103 1420 2742 
Q 1159 2381 1159 1747 
Q 1159 1113 1420 752 
Q 1681 391 2138 391 
Q 2594 391 2855 752 
Q 3116 1113 3116 1747 
z
" transform="scale(0.015625)"/>
      <path id="DejaVuSans-56" d="M 2834 3397 
L 2834 2853 
Q 2591 2978 2328 3040 
Q 2066 3103 1784 3103 
Q 1356 3103 1142 2972 
Q 928 2841 928 2578 
Q 928 2378 1081 2264 
Q 1234 2150 1697 2047 
L 1894 2003 
Q 2506 1872 2764 1633 
Q 3022 1394 3022 966 
Q 3022 478 2636 193 
Q 2250 -91 1575 -91 
Q 1294 -91 989 -36 
Q 684 19 347 128 
L 347 722 
Q 666 556 975 473 
Q 1284 391 1588 391 
Q 1994 391 2212 530 
Q 2431 669 2431 922 
Q 2431 1156 2273 1281 
Q 2116 1406 1581 1522 
L 1381 1569 
Q 847 1681 609 1914 
Q 372 2147 372 2553 
Q 372 3047 722 3315 
Q 1072 3584 1716 3584 
Q 2034 3584 2315 3537 
Q 2597 3491 2834 3397 
z
" transform="scale(0.015625)"/>
     </defs>
     <use xlink:href="#DejaVuSans-32"/>
     <use xlink:href="#DejaVuSans-53" transform="translate(78.71875 0)"/>
     <use xlink:href="#DejaVuSans-48" transform="translate(142.203125 0)"/>
     <use xlink:href="#DejaVuSans-51" transform="translate(203.734375 0)"/>
     <use xlink:href="#DejaVuSans-51" transform="translate(267.109375 0)"/>
     <use xlink:href="#DejaVuSans-48" transform="translate(330.484375 0)"/>
     <use xlink:href="#DejaVuSans-56" transform="translate(392.015625 0)"/>
     <use xlink:href="#DejaVuSans-56" transform="translate(444.109375 0)"/>
    </g>
   </g>
   <g id="text_15">
    <!-- Conscientiousness -->
    <g style="fill: #172033" transform="translate(209.157545 265.217639) scale(0.09 -0.09)">
     <defs>
      <path id="DejaVuSans-26" d="M 4122 4306 
L 4122 3641 
Q 3803 3938 3442 4084 
Q 3081 4231 2675 4231 
Q 1875 4231 1450 3742 
Q 1025 3253 1025 2328 
Q 1025 1406 1450 917 
Q 1875 428 2675 428 
Q 3081 428 3442 575 
Q 3803 722 4122 1019 
L 4122 359 
Q 3791 134 3420 21 
Q 3050 -91 2638 -91 
Q 1578 -91 968 557 
Q 359 1206 359 2328 
Q 359 3453 968 4101 
Q 1578 4750 2638 4750 
Q 3056 4750 3426 4639 
Q 3797 4528 4122 4306 
z
" transform="scale(0.015625)"/>
      <path id="DejaVuSans-58" d="M 544 1381 
L 544 3500 
L 1119 3500 
L 1119 1403 
Q 1119 906 1312 657 
Q 1506 409 1894 409 
Q 2359 409 2629 706 
Q 2900 1003 2900 1516 
L 2900 3500 
L 3475 3500 
L 3475 0 
L 2900 0 
L 2900 538 
Q 2691 219 2414 64 
Q 2138 -91 1772 -91 
Q 1169 -91 856 284 
Q 544 659 544 1381 
z
M 1991 3584 
L 1991 3584 
z
" transform="scale(0.015625)"/>
     </defs>
     <use xlink:href="#DejaVuSans-26"/>
     <use xlink:href="#DejaVuSans-52" transform="translate(69.828125 0)"/>
     <use xlink:href="#DejaVuSans-51" transform="translate(131.015625 0)"/>
     <use xlink:href="#DejaVuSans-56" transform="translate(194.390625 0)"/>
     <use xlink:href="#DejaVuSans-46" transform="translate(246.484375 0)"/>
     <use xlink:href="#DejaVuSans-4c" transform="translate(301.46875 0)"/>
     <use xlink:href="#DejaVuSans-48" transform="translate(329.25 0)"/>
     <use xlink:href="#DejaVuSans-51" transform="translate(390.78125 0)"/>
     <use xlink:href="#DejaVuSans-57" transform="translate(454.15625 0)"/>
     <use xlink:href="#DejaVuSans-4c" transform="translate(493.359375 0)"/>
     <use xlink:href="#DejaVuSans-52" transform="translate(521.140625 0)"/>
     <use xlink:href="#DejaVuSans-58" transform="translate(582.328125 0)"/>
     <use xlink:href="#DejaVuSans-56" transform="translate(645.703125 0)"/>
     <use xlink:href="#DejaVuSans-51" transform="translate(697.796875 0)"/>
     <use xlink:href="#DejaVuSans-48" transform="translate(761.171875 0)"/>
     <use xlink:href="#DejaVuSans-56" transform="translate(822.703125 0)"/>
     <use xlink:href="#DejaVuSans-56" transform="translate(874.796875 0)"/>
    </g>
   </g>
   <g id="text_16">
    <!-- Extraversion -->
    <g style="fill: #172033" transform="translate(287.142062 90.765022) scale(0.09 -0.09)">
     <defs>
      <path id="DejaVuSans-28" d="M 628 4666 
L 3578 4666 
L 3578 4134 
L 1259 4134 
L 1259 2753 
L 3481 2753 
L 3481 2222 
L 1259 2222 
L 1259 531 
L 3634 531 
L 3634 0 
L 628 0 
L 628 4666 
z
" transform="scale(0.015625)"/>
      <path id="DejaVuSans-5b" d="M 3513 3500 
L 2247 1797 
L 3578 0 
L 2900 0 
L 1881 1375 
L 863 0 
L 184 0 
L 1544 1831 
L 300 3500 
L 978 3500 
L 1906 2253 
L 2834 3500 
L 3513 3500 
z
" transform="scale(0.015625)"/>
      <path id="DejaVuSans-59" d="M 191 3500 
L 800 3500 
L 1894 563 
L 2988 3500 
L 3597 3500 
L 2284 0 
L 1503 0 
L 191 3500 
z
" transform="scale(0.015625)"/>
     </defs>
     <use xlink:href="#DejaVuSans-28"/>
     <use xlink:href="#DejaVuSans-5b" transform="translate(63.1875 0)"/>
     <use xlink:href="#DejaVuSans-57" transform="translate(122.375 0)"/>
     <use xlink:href="#DejaVuSans-55" transform="translate(161.578125 0)"/>
     <use xlink:href="#DejaVuSans-44" transform="translate(202.6875 0)"/>
     <use xlink:href="#DejaVuSans-59" transform="translate(263.96875 0)"/>
     <use xlink:href="#DejaVuSans-48" transform="translate(323.15625 0)"/>
     <use xlink:href="#DejaVuSans-55" transform="translate(384.6875 0)"/>
     <use xlink:href="#DejaVuSans-56" transform="translate(425.796875 0)"/>
     <use xlink:href="#DejaVuSans-4c" transform="translate(477.890625 0)"/>
     <use xlink:href="#DejaVuSans-52" transform="translate(505.671875 0)"/>
     <use xlink:href="#DejaVuSans-51" transform="translate(566.859375 0)"/>
    </g>
   </g>
   <g id="text_17">
    <!-- Agreeableness -->
    <g style="fill: #172033" transform="translate(257.208965 119.063152) scale(0.09 -0.09)">
     <use xlink:href="#DejaVuSans-24"/>
     <use xlink:href="#DejaVuSans-4a" transform="translate(68.40625 0)"/>
     <use xlink:href="#DejaVuSans-55" transform="translate(131.890625 0)"/>
     <use xlink:href="#DejaVuSans-48" transform="translate(170.796875 0)"/>
     <use xlink:href="#DejaVuSans-48" transform="translate(232.328125 0)"/>
     <use xlink:href="#DejaVuSans-44" transform="translate(293.859375 0)"/>
     <use xlink:href="#DejaVuSans-45" transform="translate(355.140625 0)"/>
     <use xlink:href="#DejaVuSans-4f" transform="translate(418.625 0)"/>
     <use xlink:href="#DejaVuSans-48" transform="translate(446.40625 0)"/>
     <use xlink:href="#DejaVuSans-51" transform="translate(507.9375 0)"/>
     <use xlink:href="#DejaVuSans-48" transform="translate(571.3125 0)"/>
     <use xlink:href="#DejaVuSans-56" transform="translate(632.84375 0)"/>
     <use xlink:href="#DejaVuSans-56" transform="translate(684.9375 0)"/>
    </g>
   </g>
   <g id="text_18">
    <!-- Neuroticism -->
    <g style="fill: #172033" transform="translate(390.334076 77.222632) scale(0.09 -0.09)">
     <use xlink:href="#DejaVuSans-31"/>
     <use xlink:href="#DejaVuSans-48" transform="translate(74.8125 0)"/>
     <use xlink:href="#DejaVuSans-58" transform="translate(136.34375 0)"/>
     <use xlink:href="#DejaVuSans-55" transform="translate(199.71875 0)"/>
     <use xlink:href="#DejaVuSans-52" transform="translate(238.625 0)"/>
     <use xlink:href="#DejaVuSans-57" transform="translate(299.8125 0)"/>
     <use xlink:href="#DejaVuSans-4c" transform="translate(339.015625 0)"/>
     <use xlink:href="#DejaVuSans-46" transform="translate(366.796875 0)"/>
     <use xlink:href="#DejaVuSans-4c" transform="translate(421.78125 0)"/>
     <use xlink:href="#DejaVuSans-56" transform="translate(449.5625 0)"/>
     <use xlink:href="#DejaVuSans-50" transform="translate(501.65625 0)"/>
    </g>
   </g>
   <g id="text_19">
    <g id="patch_7">
     <path d="M 110.56896 62.944397 
L 259.176773 62.944397 
Q 262.676773 62.944397 262.676773 59.444397 
L 262.676773 35.438929 
Q 262.676773 31.938929 259.176773 31.938929 
L 110.56896 31.938929 
Q 107.06896 31.938929 107.06896 35.438929 
L 107.06896 59.444397 
Q 107.06896 62.944397 110.56896 62.944397 
z
" style="fill: #ffffff; opacity: 0.95; stroke: #c7ced8; stroke-linejoin: miter"/>
    </g>
    <!-- coefficient-vector r = 0.73 -->
    <g style="fill: #172033" transform="translate(110.56896 44.038343) scale(0.1 -0.1)">
     <defs>
      <path id="DejaVuSans-13b1" d="M 2375 4863 
L 2375 4384 
L 1825 4384 
Q 1516 4384 1394 4259 
Q 1275 4134 1275 3809 
L 1275 3500 
L 2853 3500 
L 2853 3744 
Q 2853 4328 3125 4594 
Q 3213 4681 3334 4741 
Q 3578 4863 3988 4863 
L 4531 4863 
L 4531 4384 
L 3981 4384 
Q 3672 4384 3551 4259 
Q 3431 4134 3431 3809 
L 3431 3500 
L 5588 3500 
L 5588 0 
L 5009 0 
L 5009 3053 
L 3431 3053 
L 3431 0 
L 2853 0 
L 2853 3053 
L 1275 3053 
L 1275 0 
L 697 0 
L 697 3053 
L 147 3053 
L 147 3500 
L 697 3500 
L 697 3744 
Q 697 4328 969 4595 
Q 1241 4863 1831 4863 
L 2375 4863 
z
M 5009 4856 
L 5588 4856 
L 5588 4128 
L 5009 4128 
L 5009 4856 
z
" transform="scale(0.015625)"/>
      <path id="DejaVuSans-10" d="M 313 2009 
L 1997 2009 
L 1997 1497 
L 313 1497 
L 313 2009 
z
" transform="scale(0.015625)"/>
      <path id="DejaVuSans-20" d="M 678 2906 
L 4684 2906 
L 4684 2381 
L 678 2381 
L 678 2906 
z
M 678 1631 
L 4684 1631 
L 4684 1100 
L 678 1100 
L 678 1631 
z
" transform="scale(0.015625)"/>
      <path id="DejaVuSans-1a" d="M 525 4666 
L 3525 4666 
L 3525 4397 
L 1831 0 
L 1172 0 
L 2766 4134 
L 525 4134 
L 525 4666 
z
" transform="scale(0.015625)"/>
      <path id="DejaVuSans-16" d="M 2597 2516 
Q 3050 2419 3304 2112 
Q 3559 1806 3559 1356 
Q 3559 666 3084 287 
Q 2609 -91 1734 -91 
Q 1441 -91 1130 -33 
Q 819 25 488 141 
L 488 750 
Q 750 597 1062 519 
Q 1375 441 1716 441 
Q 2309 441 2620 675 
Q 2931 909 2931 1356 
Q 2931 1769 2642 2001 
Q 2353 2234 1838 2234 
L 1294 2234 
L 1294 2753 
L 1863 2753 
Q 2328 2753 2575 2939 
Q 2822 3125 2822 3475 
Q 2822 3834 2567 4026 
Q 2313 4219 1838 4219 
Q 1578 4219 1281 4162 
Q 984 4106 628 3988 
L 628 4550 
Q 988 4650 1302 4700 
Q 1616 4750 1894 4750 
Q 2613 4750 3031 4423 
Q 3450 4097 3450 3541 
Q 3450 3153 3228 2886 
Q 3006 2619 2597 2516 
z
" transform="scale(0.015625)"/>
     </defs>
     <use xlink:href="#DejaVuSans-46"/>
     <use xlink:href="#DejaVuSans-52" transform="translate(54.984375 0)"/>
     <use xlink:href="#DejaVuSans-48" transform="translate(116.171875 0)"/>
     <use xlink:href="#DejaVuSans-13b1" transform="translate(177.703125 0)"/>
     <use xlink:href="#DejaVuSans-46" transform="translate(274.390625 0)"/>
     <use xlink:href="#DejaVuSans-4c" transform="translate(329.375 0)"/>
     <use xlink:href="#DejaVuSans-48" transform="translate(357.15625 0)"/>
     <use xlink:href="#DejaVuSans-51" transform="translate(418.6875 0)"/>
     <use xlink:href="#DejaVuSans-57" transform="translate(482.0625 0)"/>
     <use xlink:href="#DejaVuSans-10" transform="translate(521.265625 0)"/>
     <use xlink:href="#DejaVuSans-59" transform="translate(554.65625 0)"/>
     <use xlink:href="#DejaVuSans-48" transform="translate(613.84375 0)"/>
     <use xlink:href="#DejaVuSans-46" transform="translate(675.375 0)"/>
     <use xlink:href="#DejaVuSans-57" transform="translate(730.359375 0)"/>
     <use xlink:href="#DejaVuSans-52" transform="translate(769.5625 0)"/>
     <use xlink:href="#DejaVuSans-55" transform="translate(830.75 0)"/>
     <use xlink:href="#DejaVuSans-3" transform="translate(871.859375 0)"/>
     <use xlink:href="#DejaVuSans-55" transform="translate(903.640625 0)"/>
     <use xlink:href="#DejaVuSans-3" transform="translate(944.75 0)"/>
     <use xlink:href="#DejaVuSans-20" transform="translate(976.53125 0)"/>
     <use xlink:href="#DejaVuSans-3" transform="translate(1060.328125 0)"/>
     <use xlink:href="#DejaVuSans-13" transform="translate(1092.109375 0)"/>
     <use xlink:href="#DejaVuSans-11" transform="translate(1155.734375 0)"/>
     <use xlink:href="#DejaVuSans-1a" transform="translate(1187.515625 0)"/>
     <use xlink:href="#DejaVuSans-16" transform="translate(1251.140625 0)"/>
    </g>
    <!-- 95% bootstrap CI [0.36, 0.89] -->
    <g style="fill: #172033" transform="translate(110.56896 56.041077) scale(0.1 -0.1)">
     <defs>
      <path id="DejaVuSans-1c" d="M 703 97 
L 703 672 
Q 941 559 1184 500 
Q 1428 441 1663 441 
Q 2288 441 2617 861 
Q 2947 1281 2994 2138 
Q 2813 1869 2534 1725 
Q 2256 1581 1919 1581 
Q 1219 1581 811 2004 
Q 403 2428 403 3163 
Q 403 3881 828 4315 
Q 1253 4750 1959 4750 
Q 2769 4750 3195 4129 
Q 3622 3509 3622 2328 
Q 3622 1225 3098 567 
Q 2575 -91 1691 -91 
Q 1453 -91 1209 -44 
Q 966 3 703 97 
z
M 1959 2075 
Q 2384 2075 2632 2365 
Q 2881 2656 2881 3163 
Q 2881 3666 2632 3958 
Q 2384 4250 1959 4250 
Q 1534 4250 1286 3958 
Q 1038 3666 1038 3163 
Q 1038 2656 1286 2365 
Q 1534 2075 1959 2075 
z
" transform="scale(0.015625)"/>
      <path id="DejaVuSans-18" d="M 691 4666 
L 3169 4666 
L 3169 4134 
L 1269 4134 
L 1269 2991 
Q 1406 3038 1543 3061 
Q 1681 3084 1819 3084 
Q 2600 3084 3056 2656 
Q 3513 2228 3513 1497 
Q 3513 744 3044 326 
Q 2575 -91 1722 -91 
Q 1428 -91 1123 -41 
Q 819 9 494 109 
L 494 744 
Q 775 591 1075 516 
Q 1375 441 1709 441 
Q 2250 441 2565 725 
Q 2881 1009 2881 1497 
Q 2881 1984 2565 2268 
Q 2250 2553 1709 2553 
Q 1456 2553 1204 2497 
Q 953 2441 691 2322 
L 691 4666 
z
" transform="scale(0.015625)"/>
      <path id="DejaVuSans-8" d="M 4653 2053 
Q 4381 2053 4226 1822 
Q 4072 1591 4072 1178 
Q 4072 772 4226 539 
Q 4381 306 4653 306 
Q 4919 306 5073 539 
Q 5228 772 5228 1178 
Q 5228 1588 5073 1820 
Q 4919 2053 4653 2053 
z
M 4653 2450 
Q 5147 2450 5437 2106 
Q 5728 1763 5728 1178 
Q 5728 594 5436 251 
Q 5144 -91 4653 -91 
Q 4153 -91 3862 251 
Q 3572 594 3572 1178 
Q 3572 1766 3864 2108 
Q 4156 2450 4653 2450 
z
M 1428 4353 
Q 1159 4353 1004 4120 
Q 850 3888 850 3481 
Q 850 3069 1003 2837 
Q 1156 2606 1428 2606 
Q 1700 2606 1854 2837 
Q 2009 3069 2009 3481 
Q 2009 3884 1853 4118 
Q 1697 4353 1428 4353 
z
M 4250 4750 
L 4750 4750 
L 1831 -91 
L 1331 -91 
L 4250 4750 
z
M 1428 4750 
Q 1922 4750 2215 4408 
Q 2509 4066 2509 3481 
Q 2509 2891 2217 2550 
Q 1925 2209 1428 2209 
Q 931 2209 642 2551 
Q 353 2894 353 3481 
Q 353 4063 643 4406 
Q 934 4750 1428 4750 
z
" transform="scale(0.015625)"/>
      <path id="DejaVuSans-2c" d="M 628 4666 
L 1259 4666 
L 1259 0 
L 628 0 
L 628 4666 
z
" transform="scale(0.015625)"/>
      <path id="DejaVuSans-3e" d="M 550 4863 
L 1875 4863 
L 1875 4416 
L 1125 4416 
L 1125 -397 
L 1875 -397 
L 1875 -844 
L 550 -844 
L 550 4863 
z
" transform="scale(0.015625)"/>
      <path id="DejaVuSans-19" d="M 2113 2584 
Q 1688 2584 1439 2293 
Q 1191 2003 1191 1497 
Q 1191 994 1439 701 
Q 1688 409 2113 409 
Q 2538 409 2786 701 
Q 3034 994 3034 1497 
Q 3034 2003 2786 2293 
Q 2538 2584 2113 2584 
z
M 3366 4563 
L 3366 3988 
Q 3128 4100 2886 4159 
Q 2644 4219 2406 4219 
Q 1781 4219 1451 3797 
Q 1122 3375 1075 2522 
Q 1259 2794 1537 2939 
Q 1816 3084 2150 3084 
Q 2853 3084 3261 2657 
Q 3669 2231 3669 1497 
Q 3669 778 3244 343 
Q 2819 -91 2113 -91 
Q 1303 -91 875 529 
Q 447 1150 447 2328 
Q 447 3434 972 4092 
Q 1497 4750 2381 4750 
Q 2619 4750 2861 4703 
Q 3103 4656 3366 4563 
z
" transform="scale(0.015625)"/>
      <path id="DejaVuSans-f" d="M 750 794 
L 1409 794 
L 1409 256 
L 897 -744 
L 494 -744 
L 750 256 
L 750 794 
z
" transform="scale(0.015625)"/>
      <path id="DejaVuSans-1b" d="M 2034 2216 
Q 1584 2216 1326 1975 
Q 1069 1734 1069 1313 
Q 1069 891 1326 650 
Q 1584 409 2034 409 
Q 2484 409 2743 651 
Q 3003 894 3003 1313 
Q 3003 1734 2745 1975 
Q 2488 2216 2034 2216 
z
M 1403 2484 
Q 997 2584 770 2862 
Q 544 3141 544 3541 
Q 544 4100 942 4425 
Q 1341 4750 2034 4750 
Q 2731 4750 3128 4425 
Q 3525 4100 3525 3541 
Q 3525 3141 3298 2862 
Q 3072 2584 2669 2484 
Q 3125 2378 3379 2068 
Q 3634 1759 3634 1313 
Q 3634 634 3220 271 
Q 2806 -91 2034 -91 
Q 1263 -91 848 271 
Q 434 634 434 1313 
Q 434 1759 690 2068 
Q 947 2378 1403 2484 
z
M 1172 3481 
Q 1172 3119 1398 2916 
Q 1625 2713 2034 2713 
Q 2441 2713 2670 2916 
Q 2900 3119 2900 3481 
Q 2900 3844 2670 4047 
Q 2441 4250 2034 4250 
Q 1625 4250 1398 4047 
Q 1172 3844 1172 3481 
z
" transform="scale(0.015625)"/>
      <path id="DejaVuSans-40" d="M 1947 4863 
L 1947 -844 
L 622 -844 
L 622 -397 
L 1369 -397 
L 1369 4416 
L 622 4416 
L 622 4863 
L 1947 4863 
z
" transform="scale(0.015625)"/>
     </defs>
     <use xlink:href="#DejaVuSans-1c"/>
     <use xlink:href="#DejaVuSans-18" transform="translate(63.625 0)"/>
     <use xlink:href="#DejaVuSans-8" transform="translate(127.25 0)"/>
     <use xlink:href="#DejaVuSans-3" transform="translate(222.265625 0)"/>
     <use xlink:href="#DejaVuSans-45" transform="translate(254.046875 0)"/>
     <use xlink:href="#DejaVuSans-52" transform="translate(317.53125 0)"/>
     <use xlink:href="#DejaVuSans-52" transform="translate(378.71875 0)"/>
     <use xlink:href="#DejaVuSans-57" transform="translate(439.90625 0)"/>
     <use xlink:href="#DejaVuSans-56" transform="translate(479.109375 0)"/>
     <use xlink:href="#DejaVuSans-57" transform="translate(531.203125 0)"/>
     <use xlink:href="#DejaVuSans-55" transform="translate(570.40625 0)"/>
     <use xlink:href="#DejaVuSans-44" transform="translate(611.515625 0)"/>
     <use xlink:href="#DejaVuSans-53" transform="translate(672.796875 0)"/>
     <use xlink:href="#DejaVuSans-3" transform="translate(736.28125 0)"/>
     <use xlink:href="#DejaVuSans-26" transform="translate(768.0625 0)"/>
     <use xlink:href="#DejaVuSans-2c" transform="translate(837.890625 0)"/>
     <use xlink:href="#DejaVuSans-3" transform="translate(867.390625 0)"/>
     <use xlink:href="#DejaVuSans-3e" transform="translate(899.171875 0)"/>
     <use xlink:href="#DejaVuSans-13" transform="translate(938.1875 0)"/>
     <use xlink:href="#DejaVuSans-11" transform="translate(1001.8125 0)"/>
     <use xlink:href="#DejaVuSans-16" transform="translate(1033.59375 0)"/>
     <use xlink:href="#DejaVuSans-19" transform="translate(1097.21875 0)"/>
     <use xlink:href="#DejaVuSans-f" transform="translate(1160.84375 0)"/>
     <use xlink:href="#DejaVuSans-3" transform="translate(1192.625 0)"/>
     <use xlink:href="#DejaVuSans-13" transform="translate(1224.40625 0)"/>
     <use xlink:href="#DejaVuSans-11" transform="translate(1288.03125 0)"/>
     <use xlink:href="#DejaVuSans-1b" transform="translate(1319.8125 0)"/>
     <use xlink:href="#DejaVuSans-1c" transform="translate(1383.4375 0)"/>
     <use xlink:href="#DejaVuSans-40" transform="translate(1447.0625 0)"/>
    </g>
   </g>
   <g id="text_20">
    <!-- Supplementary Figure. Predictor-profile overlap -->
    <g style="fill: #172033" transform="translate(98.208 17.077969) scale(0.13 -0.13)">
     <defs>
      <path id="DejaVuSans-Bold-36" d="M 3834 4519 
L 3834 3531 
Q 3450 3703 3084 3790 
Q 2719 3878 2394 3878 
Q 1963 3878 1756 3759 
Q 1550 3641 1550 3391 
Q 1550 3203 1689 3098 
Q 1828 2994 2194 2919 
L 2706 2816 
Q 3484 2659 3812 2340 
Q 4141 2022 4141 1434 
Q 4141 663 3683 286 
Q 3225 -91 2284 -91 
Q 1841 -91 1394 -6 
Q 947 78 500 244 
L 500 1259 
Q 947 1022 1364 901 
Q 1781 781 2169 781 
Q 2563 781 2772 912 
Q 2981 1044 2981 1288 
Q 2981 1506 2839 1625 
Q 2697 1744 2272 1838 
L 1806 1941 
Q 1106 2091 782 2419 
Q 459 2747 459 3303 
Q 459 4000 909 4375 
Q 1359 4750 2203 4750 
Q 2588 4750 2994 4692 
Q 3400 4634 3834 4519 
z
" transform="scale(0.015625)"/>
      <path id="DejaVuSans-Bold-58" d="M 500 1363 
L 500 3500 
L 1625 3500 
L 1625 3150 
Q 1625 2866 1622 2436 
Q 1619 2006 1619 1863 
Q 1619 1441 1641 1255 
Q 1663 1069 1716 984 
Q 1784 875 1895 815 
Q 2006 756 2150 756 
Q 2500 756 2700 1025 
Q 2900 1294 2900 1772 
L 2900 3500 
L 4019 3500 
L 4019 0 
L 2900 0 
L 2900 506 
Q 2647 200 2364 54 
Q 2081 -91 1741 -91 
Q 1134 -91 817 281 
Q 500 653 500 1363 
z
" transform="scale(0.015625)"/>
      <path id="DejaVuSans-Bold-53" d="M 1656 506 
L 1656 -1331 
L 538 -1331 
L 538 3500 
L 1656 3500 
L 1656 2988 
Q 1888 3294 2169 3439 
Q 2450 3584 2816 3584 
Q 3463 3584 3878 3070 
Q 4294 2556 4294 1747 
Q 4294 938 3878 423 
Q 3463 -91 2816 -91 
Q 2450 -91 2169 54 
Q 1888 200 1656 506 
z
M 2400 2772 
Q 2041 2772 1848 2508 
Q 1656 2244 1656 1747 
Q 1656 1250 1848 986 
Q 2041 722 2400 722 
Q 2759 722 2948 984 
Q 3138 1247 3138 1747 
Q 3138 2247 2948 2509 
Q 2759 2772 2400 2772 
z
" transform="scale(0.015625)"/>
      <path id="DejaVuSans-Bold-4f" d="M 538 4863 
L 1656 4863 
L 1656 0 
L 538 0 
L 538 4863 
z
" transform="scale(0.015625)"/>
      <path id="DejaVuSans-Bold-48" d="M 4031 1759 
L 4031 1441 
L 1416 1441 
Q 1456 1047 1700 850 
Q 1944 653 2381 653 
Q 2734 653 3104 758 
Q 3475 863 3866 1075 
L 3866 213 
Q 3469 63 3072 -14 
Q 2675 -91 2278 -91 
Q 1328 -91 801 392 
Q 275 875 275 1747 
Q 275 2603 792 3093 
Q 1309 3584 2216 3584 
Q 3041 3584 3536 3087 
Q 4031 2591 4031 1759 
z
M 2881 2131 
Q 2881 2450 2695 2645 
Q 2509 2841 2209 2841 
Q 1884 2841 1681 2658 
Q 1478 2475 1428 2131 
L 2881 2131 
z
" transform="scale(0.015625)"/>
      <path id="DejaVuSans-Bold-50" d="M 3781 2919 
Q 3994 3244 4286 3414 
Q 4578 3584 4928 3584 
Q 5531 3584 5847 3212 
Q 6163 2841 6163 2131 
L 6163 0 
L 5038 0 
L 5038 1825 
Q 5041 1866 5042 1909 
Q 5044 1953 5044 2034 
Q 5044 2406 4934 2573 
Q 4825 2741 4581 2741 
Q 4263 2741 4089 2478 
Q 3916 2216 3909 1719 
L 3909 0 
L 2784 0 
L 2784 1825 
Q 2784 2406 2684 2573 
Q 2584 2741 2328 2741 
Q 2006 2741 1831 2477 
Q 1656 2213 1656 1722 
L 1656 0 
L 531 0 
L 531 3500 
L 1656 3500 
L 1656 2988 
Q 1863 3284 2130 3434 
Q 2397 3584 2719 3584 
Q 3081 3584 3359 3409 
Q 3638 3234 3781 2919 
z
" transform="scale(0.015625)"/>
      <path id="DejaVuSans-Bold-51" d="M 4056 2131 
L 4056 0 
L 2931 0 
L 2931 347 
L 2931 1631 
Q 2931 2084 2911 2256 
Q 2891 2428 2841 2509 
Q 2775 2619 2662 2680 
Q 2550 2741 2406 2741 
Q 2056 2741 1856 2470 
Q 1656 2200 1656 1722 
L 1656 0 
L 538 0 
L 538 3500 
L 1656 3500 
L 1656 2988 
Q 1909 3294 2193 3439 
Q 2478 3584 2822 3584 
Q 3428 3584 3742 3212 
Q 4056 2841 4056 2131 
z
" transform="scale(0.015625)"/>
      <path id="DejaVuSans-Bold-57" d="M 1759 4494 
L 1759 3500 
L 2913 3500 
L 2913 2700 
L 1759 2700 
L 1759 1216 
Q 1759 972 1856 886 
Q 1953 800 2241 800 
L 2816 800 
L 2816 0 
L 1856 0 
Q 1194 0 917 276 
Q 641 553 641 1216 
L 641 2700 
L 84 2700 
L 84 3500 
L 641 3500 
L 641 4494 
L 1759 4494 
z
" transform="scale(0.015625)"/>
      <path id="DejaVuSans-Bold-44" d="M 2106 1575 
Q 1756 1575 1579 1456 
Q 1403 1338 1403 1106 
Q 1403 894 1545 773 
Q 1688 653 1941 653 
Q 2256 653 2472 879 
Q 2688 1106 2688 1447 
L 2688 1575 
L 2106 1575 
z
M 3816 1997 
L 3816 0 
L 2688 0 
L 2688 519 
Q 2463 200 2181 54 
Q 1900 -91 1497 -91 
Q 953 -91 614 226 
Q 275 544 275 1050 
Q 275 1666 698 1953 
Q 1122 2241 2028 2241 
L 2688 2241 
L 2688 2328 
Q 2688 2594 2478 2717 
Q 2269 2841 1825 2841 
Q 1466 2841 1156 2769 
Q 847 2697 581 2553 
L 581 3406 
Q 941 3494 1303 3539 
Q 1666 3584 2028 3584 
Q 2975 3584 3395 3211 
Q 3816 2838 3816 1997 
z
" transform="scale(0.015625)"/>
      <path id="DejaVuSans-Bold-55" d="M 3138 2547 
Q 2991 2616 2845 2648 
Q 2700 2681 2553 2681 
Q 2122 2681 1889 2404 
Q 1656 2128 1656 1613 
L 1656 0 
L 538 0 
L 538 3500 
L 1656 3500 
L 1656 2925 
Q 1872 3269 2151 3426 
Q 2431 3584 2822 3584 
Q 2878 3584 2943 3579 
Q 3009 3575 3134 3559 
L 3138 2547 
z
" transform="scale(0.015625)"/>
      <path id="DejaVuSans-Bold-5c" d="M 78 3500 
L 1197 3500 
L 2138 1125 
L 2938 3500 
L 4056 3500 
L 2584 -331 
Q 2363 -916 2067 -1148 
Q 1772 -1381 1288 -1381 
L 641 -1381 
L 641 -647 
L 991 -647 
Q 1275 -647 1404 -556 
Q 1534 -466 1606 -231 
L 1638 -134 
L 78 3500 
z
" transform="scale(0.015625)"/>
      <path id="DejaVuSans-Bold-3" transform="scale(0.015625)"/>
      <path id="DejaVuSans-Bold-29" d="M 588 4666 
L 3834 4666 
L 3834 3756 
L 1791 3756 
L 1791 2888 
L 3713 2888 
L 3713 1978 
L 1791 1978 
L 1791 0 
L 588 0 
L 588 4666 
z
" transform="scale(0.015625)"/>
      <path id="DejaVuSans-Bold-4c" d="M 538 3500 
L 1656 3500 
L 1656 0 
L 538 0 
L 538 3500 
z
M 538 4863 
L 1656 4863 
L 1656 3950 
L 538 3950 
L 538 4863 
z
" transform="scale(0.015625)"/>
      <path id="DejaVuSans-Bold-4a" d="M 2919 594 
Q 2688 288 2409 144 
Q 2131 0 1766 0 
Q 1125 0 706 504 
Q 288 1009 288 1791 
Q 288 2575 706 3076 
Q 1125 3578 1766 3578 
Q 2131 3578 2409 3434 
Q 2688 3291 2919 2981 
L 2919 3500 
L 4044 3500 
L 4044 353 
Q 4044 -491 3511 -936 
Q 2978 -1381 1966 -1381 
Q 1638 -1381 1331 -1331 
Q 1025 -1281 716 -1178 
L 716 -306 
Q 1009 -475 1290 -558 
Q 1572 -641 1856 -641 
Q 2406 -641 2662 -400 
Q 2919 -159 2919 353 
L 2919 594 
z
M 2181 2772 
Q 1834 2772 1640 2515 
Q 1447 2259 1447 1791 
Q 1447 1309 1634 1061 
Q 1822 813 2181 813 
Q 2531 813 2725 1069 
Q 2919 1325 2919 1791 
Q 2919 2259 2725 2515 
Q 2531 2772 2181 2772 
z
" transform="scale(0.015625)"/>
      <path id="DejaVuSans-Bold-11" d="M 653 1209 
L 1778 1209 
L 1778 0 
L 653 0 
L 653 1209 
z
" transform="scale(0.015625)"/>
      <path id="DejaVuSans-Bold-33" d="M 588 4666 
L 2584 4666 
Q 3475 4666 3951 4270 
Q 4428 3875 4428 3144 
Q 4428 2409 3951 2014 
Q 3475 1619 2584 1619 
L 1791 1619 
L 1791 0 
L 588 0 
L 588 4666 
z
M 1791 3794 
L 1791 2491 
L 2456 2491 
Q 2806 2491 2997 2661 
Q 3188 2831 3188 3144 
Q 3188 3456 2997 3625 
Q 2806 3794 2456 3794 
L 1791 3794 
z
" transform="scale(0.015625)"/>
      <path id="DejaVuSans-Bold-47" d="M 2919 2988 
L 2919 4863 
L 4044 4863 
L 4044 0 
L 2919 0 
L 2919 506 
Q 2688 197 2409 53 
Q 2131 -91 1766 -91 
Q 1119 -91 703 423 
Q 288 938 288 1747 
Q 288 2556 703 3070 
Q 1119 3584 1766 3584 
Q 2128 3584 2408 3439 
Q 2688 3294 2919 2988 
z
M 2181 722 
Q 2541 722 2730 984 
Q 2919 1247 2919 1747 
Q 2919 2247 2730 2509 
Q 2541 2772 2181 2772 
Q 1825 2772 1636 2509 
Q 1447 2247 1447 1747 
Q 1447 1247 1636 984 
Q 1825 722 2181 722 
z
" transform="scale(0.015625)"/>
      <path id="DejaVuSans-Bold-46" d="M 3366 3391 
L 3366 2478 
Q 3138 2634 2908 2709 
Q 2678 2784 2431 2784 
Q 1963 2784 1702 2511 
Q 1441 2238 1441 1747 
Q 1441 1256 1702 982 
Q 1963 709 2431 709 
Q 2694 709 2930 787 
Q 3166 866 3366 1019 
L 3366 103 
Q 3103 6 2833 -42 
Q 2563 -91 2291 -91 
Q 1344 -91 809 395 
Q 275 881 275 1747 
Q 275 2613 809 3098 
Q 1344 3584 2291 3584 
Q 2566 3584 2833 3536 
Q 3100 3488 3366 3391 
z
" transform="scale(0.015625)"/>
      <path id="DejaVuSans-Bold-52" d="M 2203 2784 
Q 1831 2784 1636 2517 
Q 1441 2250 1441 1747 
Q 1441 1244 1636 976 
Q 1831 709 2203 709 
Q 2569 709 2762 976 
Q 2956 1244 2956 1747 
Q 2956 2250 2762 2517 
Q 2569 2784 2203 2784 
z
M 2203 3584 
Q 3106 3584 3614 3096 
Q 4122 2609 4122 1747 
Q 4122 884 3614 396 
Q 3106 -91 2203 -91 
Q 1297 -91 786 396 
Q 275 884 275 1747 
Q 275 2609 786 3096 
Q 1297 3584 2203 3584 
z
" transform="scale(0.015625)"/>
      <path id="DejaVuSans-Bold-10" d="M 347 2297 
L 2309 2297 
L 2309 1388 
L 347 1388 
L 347 2297 
z
" transform="scale(0.015625)"/>
      <path id="DejaVuSans-Bold-13ab" d="M 3078 4863 
L 4206 4863 
L 4206 3950 
L 3078 3950 
L 3078 4863 
z
M 2847 4863 
L 2847 4128 
L 2228 4128 
Q 1994 4128 1903 4042 
Q 1813 3956 1813 3744 
L 1813 3500 
L 4206 3500 
L 4206 0 
L 3078 0 
L 3078 2700 
L 1813 2700 
L 1813 0 
L 684 0 
L 684 2700 
L 134 2700 
L 134 3500 
L 684 3500 
L 684 3744 
Q 684 4316 1003 4589 
Q 1322 4863 1991 4863 
L 2847 4863 
z
" transform="scale(0.015625)"/>
      <path id="DejaVuSans-Bold-59" d="M 97 3500 
L 1216 3500 
L 2088 1081 
L 2956 3500 
L 4078 3500 
L 2700 0 
L 1472 0 
L 97 3500 
z
" transform="scale(0.015625)"/>
     </defs>
     <use xlink:href="#DejaVuSans-Bold-36"/>
     <use xlink:href="#DejaVuSans-Bold-58" transform="translate(72.015625 0)"/>
     <use xlink:href="#DejaVuSans-Bold-53" transform="translate(143.203125 0)"/>
     <use xlink:href="#DejaVuSans-Bold-53" transform="translate(214.78125 0)"/>
     <use xlink:href="#DejaVuSans-Bold-4f" transform="translate(286.359375 0)"/>
     <use xlink:href="#DejaVuSans-Bold-48" transform="translate(320.640625 0)"/>
     <use xlink:href="#DejaVuSans-Bold-50" transform="translate(388.46875 0)"/>
     <use xlink:href="#DejaVuSans-Bold-48" transform="translate(492.671875 0)"/>
     <use xlink:href="#DejaVuSans-Bold-51" transform="translate(560.5 0)"/>
     <use xlink:href="#DejaVuSans-Bold-57" transform="translate(631.6875 0)"/>
     <use xlink:href="#DejaVuSans-Bold-44" transform="translate(679.484375 0)"/>
     <use xlink:href="#DejaVuSans-Bold-55" transform="translate(746.96875 0)"/>
     <use xlink:href="#DejaVuSans-Bold-5c" transform="translate(796.28125 0)"/>
     <use xlink:href="#DejaVuSans-Bold-3" transform="translate(861.46875 0)"/>
     <use xlink:href="#DejaVuSans-Bold-29" transform="translate(896.28125 0)"/>
     <use xlink:href="#DejaVuSans-Bold-4c" transform="translate(964.59375 0)"/>
     <use xlink:href="#DejaVuSans-Bold-4a" transform="translate(998.875 0)"/>
     <use xlink:href="#DejaVuSans-Bold-58" transform="translate(1070.453125 0)"/>
     <use xlink:href="#DejaVuSans-Bold-55" transform="translate(1141.640625 0)"/>
     <use xlink:href="#DejaVuSans-Bold-48" transform="translate(1190.953125 0)"/>
     <use xlink:href="#DejaVuSans-Bold-11" transform="translate(1258.78125 0)"/>
     <use xlink:href="#DejaVuSans-Bold-3" transform="translate(1296.765625 0)"/>
     <use xlink:href="#DejaVuSans-Bold-33" transform="translate(1331.578125 0)"/>
     <use xlink:href="#DejaVuSans-Bold-55" transform="translate(1404.875 0)"/>
     <use xlink:href="#DejaVuSans-Bold-48" transform="translate(1454.1875 0)"/>
     <use xlink:href="#DejaVuSans-Bold-47" transform="translate(1522.015625 0)"/>
     <use xlink:href="#DejaVuSans-Bold-4c" transform="translate(1593.59375 0)"/>
     <use xlink:href="#DejaVuSans-Bold-46" transform="translate(1627.875 0)"/>
     <use xlink:href="#DejaVuSans-Bold-57" transform="translate(1687.15625 0)"/>
     <use xlink:href="#DejaVuSans-Bold-52" transform="translate(1734.953125 0)"/>
     <use xlink:href="#DejaVuSans-Bold-55" transform="translate(1803.65625 0)"/>
     <use xlink:href="#DejaVuSans-Bold-10" transform="translate(1852.96875 0)"/>
     <use xlink:href="#DejaVuSans-Bold-53" transform="translate(1894.46875 0)"/>
     <use xlink:href="#DejaVuSans-Bold-55" transform="translate(1966.046875 0)"/>
     <use xlink:href="#DejaVuSans-Bold-52" transform="translate(2015.359375 0)"/>
     <use xlink:href="#DejaVuSans-Bold-13ab" transform="translate(2084.0625 0)"/>
     <use xlink:href="#DejaVuSans-Bold-4f" transform="translate(2158.1875 0)"/>
     <use xlink:href="#DejaVuSans-Bold-48" transform="translate(2192.46875 0)"/>
     <use xlink:href="#DejaVuSans-Bold-3" transform="translate(2260.296875 0)"/>
     <use xlink:href="#DejaVuSans-Bold-52" transform="translate(2295.109375 0)"/>
     <use xlink:href="#DejaVuSans-Bold-59" transform="translate(2363.8125 0)"/>
     <use xlink:href="#DejaVuSans-Bold-48" transform="translate(2429 0)"/>
     <use xlink:href="#DejaVuSans-Bold-55" transform="translate(2496.828125 0)"/>
     <use xlink:href="#DejaVuSans-Bold-4f" transform="translate(2546.140625 0)"/>
     <use xlink:href="#DejaVuSans-Bold-44" transform="translate(2580.421875 0)"/>
     <use xlink:href="#DejaVuSans-Bold-53" transform="translate(2647.90625 0)"/>
    </g>
   </g>
  </g>
  <g id="text_21">
   <!-- Note. Each point is one focal continuous profile trait. The dashed line marks identical standardized coefficients in the direct and network models. -->
   <g style="fill: #5d6b82" transform="translate(7.2 392.579859) scale(0.09 -0.09)">
    <defs>
     <path id="DejaVuSans-4b" d="M 3513 2113 
L 3513 0 
L 2938 0 
L 2938 2094 
Q 2938 2591 2744 2837 
Q 2550 3084 2163 3084 
Q 1697 3084 1428 2787 
Q 1159 2491 1159 1978 
L 1159 0 
L 581 0 
L 581 4863 
L 1159 4863 
L 1159 2956 
Q 1366 3272 1645 3428 
Q 1925 3584 2291 3584 
Q 2894 3584 3203 3211 
Q 3513 2838 3513 2113 
z
" transform="scale(0.015625)"/>
     <path id="DejaVuSans-49" d="M 2375 4863 
L 2375 4384 
L 1825 4384 
Q 1516 4384 1395 4259 
Q 1275 4134 1275 3809 
L 1275 3500 
L 2222 3500 
L 2222 3053 
L 1275 3053 
L 1275 0 
L 697 0 
L 697 3053 
L 147 3053 
L 147 3500 
L 697 3500 
L 697 3744 
Q 697 4328 969 4595 
Q 1241 4863 1831 4863 
L 2375 4863 
z
" transform="scale(0.015625)"/>
     <path id="DejaVuSans-13af" d="M 3431 3500 
L 3431 0 
L 2853 0 
L 2853 3053 
L 1275 3053 
L 1275 0 
L 697 0 
L 697 3053 
L 147 3053 
L 147 3500 
L 697 3500 
L 697 3744 
Q 697 4316 967 4589 
Q 1238 4863 1797 4863 
L 2375 4863 
L 2375 4384 
L 1825 4384 
Q 1516 4384 1395 4259 
Q 1275 4134 1275 3809 
L 1275 3500 
L 3431 3500 
z
M 2853 4856 
L 3431 4856 
L 3431 4128 
L 2853 4128 
L 2853 4856 
z
" transform="scale(0.015625)"/>
     <path id="DejaVuSans-37" d="M -19 4666 
L 3928 4666 
L 3928 4134 
L 2272 4134 
L 2272 0 
L 1638 0 
L 1638 4134 
L -19 4134 
L -19 4666 
z
" transform="scale(0.015625)"/>
     <path id="DejaVuSans-5d" d="M 353 3500 
L 3084 3500 
L 3084 2975 
L 922 459 
L 3084 459 
L 3084 0 
L 275 0 
L 275 525 
L 2438 3041 
L 353 3041 
L 353 3500 
z
" transform="scale(0.015625)"/>
    </defs>
    <use xlink:href="#DejaVuSans-31"/>
    <use xlink:href="#DejaVuSans-52" transform="translate(74.8125 0)"/>
    <use xlink:href="#DejaVuSans-57" transform="translate(136 0)"/>
    <use xlink:href="#DejaVuSans-48" transform="translate(175.203125 0)"/>
    <use xlink:href="#DejaVuSans-11" transform="translate(236.734375 0)"/>
    <use xlink:href="#DejaVuSans-3" transform="translate(268.515625 0)"/>
    <use xlink:href="#DejaVuSans-28" transform="translate(300.296875 0)"/>
    <use xlink:href="#DejaVuSans-44" transform="translate(363.484375 0)"/>
    <use xlink:href="#DejaVuSans-46" transform="translate(424.765625 0)"/>
    <use xlink:href="#DejaVuSans-4b" transform="translate(479.75 0)"/>
    <use xlink:href="#DejaVuSans-3" transform="translate(543.125 0)"/>
    <use xlink:href="#DejaVuSans-53" transform="translate(574.90625 0)"/>
    <use xlink:href="#DejaVuSans-52" transform="translate(638.390625 0)"/>
    <use xlink:href="#DejaVuSans-4c" transform="translate(699.578125 0)"/>
    <use xlink:href="#DejaVuSans-51" transform="translate(727.359375 0)"/>
    <use xlink:href="#DejaVuSans-57" transform="translate(790.734375 0)"/>
    <use xlink:href="#DejaVuSans-3" transform="translate(829.9375 0)"/>
    <use xlink:href="#DejaVuSans-4c" transform="translate(861.71875 0)"/>
    <use xlink:href="#DejaVuSans-56" transform="translate(889.5 0)"/>
    <use xlink:href="#DejaVuSans-3" transform="translate(941.59375 0)"/>
    <use xlink:href="#DejaVuSans-52" transform="translate(973.375 0)"/>
    <use xlink:href="#DejaVuSans-51" transform="translate(1034.5625 0)"/>
    <use xlink:href="#DejaVuSans-48" transform="translate(1097.9375 0)"/>
    <use xlink:href="#DejaVuSans-3" transform="translate(1159.46875 0)"/>
    <use xlink:href="#DejaVuSans-49" transform="translate(1191.25 0)"/>
    <use xlink:href="#DejaVuSans-52" transform="translate(1226.453125 0)"/>
    <use xlink:href="#DejaVuSans-46" transform="translate(1287.640625 0)"/>
    <use xlink:href="#DejaVuSans-44" transform="translate(1342.625 0)"/>
    <use xlink:href="#DejaVuSans-4f" transform="translate(1403.90625 0)"/>
    <use xlink:href="#DejaVuSans-3" transform="translate(1431.6875 0)"/>
    <use xlink:href="#DejaVuSans-46" transform="translate(1463.46875 0)"/>
    <use xlink:href="#DejaVuSans-52" transform="translate(1518.453125 0)"/>
    <use xlink:href="#DejaVuSans-51" transform="translate(1579.640625 0)"/>
    <use xlink:href="#DejaVuSans-57" transform="translate(1643.015625 0)"/>
    <use xlink:href="#DejaVuSans-4c" transform="translate(1682.21875 0)"/>
    <use xlink:href="#DejaVuSans-51" transform="translate(1710 0)"/>
    <use xlink:href="#DejaVuSans-58" transform="translate(1773.375 0)"/>
    <use xlink:href="#DejaVuSans-52" transform="translate(1836.75 0)"/>
    <use xlink:href="#DejaVuSans-58" transform="translate(1897.9375 0)"/>
    <use xlink:href="#DejaVuSans-56" transform="translate(1961.3125 0)"/>
    <use xlink:href="#DejaVuSans-3" transform="translate(2013.40625 0)"/>
    <use xlink:href="#DejaVuSans-53" transform="translate(2045.1875 0)"/>
    <use xlink:href="#DejaVuSans-55" transform="translate(2108.671875 0)"/>
    <use xlink:href="#DejaVuSans-52" transform="translate(2147.578125 0)"/>
    <use xlink:href="#DejaVuSans-13af" transform="translate(2208.765625 0)"/>
    <use xlink:href="#DejaVuSans-4f" transform="translate(2271.75 0)"/>
    <use xlink:href="#DejaVuSans-48" transform="translate(2299.53125 0)"/>
    <use xlink:href="#DejaVuSans-3" transform="translate(2361.0625 0)"/>
    <use xlink:href="#DejaVuSans-57" transform="translate(2392.84375 0)"/>
    <use xlink:href="#DejaVuSans-55" transform="translate(2432.046875 0)"/>
    <use xlink:href="#DejaVuSans-44" transform="translate(2473.15625 0)"/>
    <use xlink:href="#DejaVuSans-4c" transform="translate(2534.4375 0)"/>
    <use xlink:href="#DejaVuSans-57" transform="translate(2562.21875 0)"/>
    <use xlink:href="#DejaVuSans-11" transform="translate(2601.421875 0)"/>
    <use xlink:href="#DejaVuSans-3" transform="translate(2633.203125 0)"/>
    <use xlink:href="#DejaVuSans-37" transform="translate(2664.984375 0)"/>
    <use xlink:href="#DejaVuSans-4b" transform="translate(2726.0625 0)"/>
    <use xlink:href="#DejaVuSans-48" transform="translate(2789.4375 0)"/>
    <use xlink:href="#DejaVuSans-3" transform="translate(2850.96875 0)"/>
    <use xlink:href="#DejaVuSans-47" transform="translate(2882.75 0)"/>
    <use xlink:href="#DejaVuSans-44" transform="translate(2946.234375 0)"/>
    <use xlink:href="#DejaVuSans-56" transform="translate(3007.515625 0)"/>
    <use xlink:href="#DejaVuSans-4b" transform="translate(3059.609375 0)"/>
    <use xlink:href="#DejaVuSans-48" transform="translate(3122.984375 0)"/>
    <use xlink:href="#DejaVuSans-47" transform="translate(3184.515625 0)"/>
    <use xlink:href="#DejaVuSans-3" transform="translate(3248 0)"/>
    <use xlink:href="#DejaVuSans-4f" transform="translate(3279.78125 0)"/>
    <use xlink:href="#DejaVuSans-4c" transform="translate(3307.5625 0)"/>
    <use xlink:href="#DejaVuSans-51" transform="translate(3335.34375 0)"/>
    <use xlink:href="#DejaVuSans-48" transform="translate(3398.71875 0)"/>
    <use xlink:href="#DejaVuSans-3" transform="translate(3460.25 0)"/>
    <use xlink:href="#DejaVuSans-50" transform="translate(3492.03125 0)"/>
    <use xlink:href="#DejaVuSans-44" transform="translate(3589.4375 0)"/>
    <use xlink:href="#DejaVuSans-55" transform="translate(3650.71875 0)"/>
    <use xlink:href="#DejaVuSans-4e" transform="translate(3691.828125 0)"/>
    <use xlink:href="#DejaVuSans-56" transform="translate(3749.734375 0)"/>
    <use xlink:href="#DejaVuSans-3" transform="translate(3801.828125 0)"/>
    <use xlink:href="#DejaVuSans-4c" transform="translate(3833.609375 0)"/>
    <use xlink:href="#DejaVuSans-47" transform="translate(3861.390625 0)"/>
    <use xlink:href="#DejaVuSans-48" transform="translate(3924.875 0)"/>
    <use xlink:href="#DejaVuSans-51" transform="translate(3986.40625 0)"/>
    <use xlink:href="#DejaVuSans-57" transform="translate(4049.78125 0)"/>
    <use xlink:href="#DejaVuSans-4c" transform="translate(4088.984375 0)"/>
    <use xlink:href="#DejaVuSans-46" transform="translate(4116.765625 0)"/>
    <use xlink:href="#DejaVuSans-44" transform="translate(4171.75 0)"/>
    <use xlink:href="#DejaVuSans-4f" transform="translate(4233.03125 0)"/>
    <use xlink:href="#DejaVuSans-3" transform="translate(4260.8125 0)"/>
    <use xlink:href="#DejaVuSans-56" transform="translate(4292.59375 0)"/>
    <use xlink:href="#DejaVuSans-57" transform="translate(4344.6875 0)"/>
    <use xlink:href="#DejaVuSans-44" transform="translate(4383.890625 0)"/>
    <use xlink:href="#DejaVuSans-51" transform="translate(4445.171875 0)"/>
    <use xlink:href="#DejaVuSans-47" transform="translate(4508.546875 0)"/>
    <use xlink:href="#DejaVuSans-44" transform="translate(4572.03125 0)"/>
    <use xlink:href="#DejaVuSans-55" transform="translate(4633.3125 0)"/>
    <use xlink:href="#DejaVuSans-47" transform="translate(4672.671875 0)"/>
    <use xlink:href="#DejaVuSans-4c" transform="translate(4736.15625 0)"/>
    <use xlink:href="#DejaVuSans-5d" transform="translate(4763.9375 0)"/>
    <use xlink:href="#DejaVuSans-48" transform="translate(4816.421875 0)"/>
    <use xlink:href="#DejaVuSans-47" transform="translate(4877.953125 0)"/>
    <use xlink:href="#DejaVuSans-3" transform="translate(4941.4375 0)"/>
    <use xlink:href="#DejaVuSans-46" transform="translate(4973.21875 0)"/>
    <use xlink:href="#DejaVuSans-52" transform="translate(5028.203125 0)"/>
    <use xlink:href="#DejaVuSans-48" transform="translate(5089.390625 0)"/>
    <use xlink:href="#DejaVuSans-13b1" transform="translate(5150.921875 0)"/>
    <use xlink:href="#DejaVuSans-46" transform="translate(5247.609375 0)"/>
    <use xlink:href="#DejaVuSans-4c" transform="translate(5302.59375 0)"/>
    <use xlink:href="#DejaVuSans-48" transform="translate(5330.375 0)"/>
    <use xlink:href="#DejaVuSans-51" transform="translate(5391.90625 0)"/>
    <use xlink:href="#DejaVuSans-57" transform="translate(5455.28125 0)"/>
    <use xlink:href="#DejaVuSans-56" transform="translate(5494.484375 0)"/>
    <use xlink:href="#DejaVuSans-3" transform="translate(5546.578125 0)"/>
    <use xlink:href="#DejaVuSans-4c" transform="translate(5578.359375 0)"/>
    <use xlink:href="#DejaVuSans-51" transform="translate(5606.140625 0)"/>
    <use xlink:href="#DejaVuSans-3" transform="translate(5669.515625 0)"/>
    <use xlink:href="#DejaVuSans-57" transform="translate(5701.296875 0)"/>
    <use xlink:href="#DejaVuSans-4b" transform="translate(5740.5 0)"/>
    <use xlink:href="#DejaVuSans-48" transform="translate(5803.875 0)"/>
    <use xlink:href="#DejaVuSans-3" transform="translate(5865.40625 0)"/>
    <use xlink:href="#DejaVuSans-47" transform="translate(5897.1875 0)"/>
    <use xlink:href="#DejaVuSans-4c" transform="translate(5960.671875 0)"/>
    <use xlink:href="#DejaVuSans-55" transform="translate(5988.453125 0)"/>
    <use xlink:href="#DejaVuSans-48" transform="translate(6027.359375 0)"/>
    <use xlink:href="#DejaVuSans-46" transform="translate(6088.890625 0)"/>
    <use xlink:href="#DejaVuSans-57" transform="translate(6143.875 0)"/>
    <use xlink:href="#DejaVuSans-3" transform="translate(6183.078125 0)"/>
    <use xlink:href="#DejaVuSans-44" transform="translate(6214.859375 0)"/>
    <use xlink:href="#DejaVuSans-51" transform="translate(6276.140625 0)"/>
    <use xlink:href="#DejaVuSans-47" transform="translate(6339.515625 0)"/>
    <use xlink:href="#DejaVuSans-3" transform="translate(6403 0)"/>
    <use xlink:href="#DejaVuSans-51" transform="translate(6434.78125 0)"/>
    <use xlink:href="#DejaVuSans-48" transform="translate(6498.15625 0)"/>
    <use xlink:href="#DejaVuSans-57" transform="translate(6559.6875 0)"/>
    <use xlink:href="#DejaVuSans-5a" transform="translate(6598.890625 0)"/>
    <use xlink:href="#DejaVuSans-52" transform="translate(6680.671875 0)"/>
    <use xlink:href="#DejaVuSans-55" transform="translate(6741.859375 0)"/>
    <use xlink:href="#DejaVuSans-4e" transform="translate(6782.96875 0)"/>
    <use xlink:href="#DejaVuSans-3" transform="translate(6840.875 0)"/>
    <use xlink:href="#DejaVuSans-50" transform="translate(6872.65625 0)"/>
    <use xlink:href="#DejaVuSans-52" transform="translate(6970.0625 0)"/>
    <use xlink:href="#DejaVuSans-47" transform="translate(7031.25 0)"/>
    <use xlink:href="#DejaVuSans-48" transform="translate(7094.734375 0)"/>
    <use xlink:href="#DejaVuSans-4f" transform="translate(7156.265625 0)"/>
    <use xlink:href="#DejaVuSans-56" transform="translate(7184.046875 0)"/>
    <use xlink:href="#DejaVuSans-11" transform="translate(7236.140625 0)"/>
   </g>
  </g>
 </g>
 <defs>
  <clipPath id="pdee4a97c87">
   <rect x="98.208" y="23.077969" width="309.024" height="309.024"/>
  </clipPath>
 </defs>
</svg>
